<svg xmlns="http://www.w3.org/2000/svg" width="270" height="127" viewBox="0 0 270 127">
  <defs>
    <style>
      .cls-1 {
        fill: #7d7d7d;
        fill-rule: evenodd;
      }
    </style>
  </defs>
  <path class="cls-1" d="M177.134,1.062h5.184v5.1h-5.184v-5.1Zm12.643,26.17h5.184v5.1h-5.184v-5.1Zm-7.965,0H187v5.1h-5.184v-5.1Zm-80.348.063h5.183v5.1h-5.183v-5.1Zm-7.965,0h5.184v5.1H93.5v-5.1Zm66.44,0h5.184v5.1h-5.184v-5.1Zm-7.965,0h5.183v5.1h-5.183v-5.1Zm-9.483-.063h5.184v5.1h-5.184v-5.1Zm-14.476-.252h-0.38v4.781l1.2-.126a7.8,7.8,0,0,0,7.4-6.48h4.235a7.821,7.821,0,0,0,4.931-1.573,8.459,8.459,0,0,0,5.057,1.573h7.27a8.056,8.056,0,0,0,5.058-1.573,8.459,8.459,0,0,0,5.057,1.573h7.27a8.055,8.055,0,0,0,5.057-1.573,8.459,8.459,0,0,0,5.058,1.573h1.833a8,8,0,0,0,4.994-1.573,8.71,8.71,0,0,0,4.994,1.573H219.3c4.046,0,6.385-2.328,6.385-6.291V8.359h-5.057v9.247c0,2.831-.379,2.831-1.391,2.831h-2.023V8.359h-5.184V20.437h-4.8V8.359h-4.994V20.437h-5.247c-1.264,0-2.782-.314-2.782-2.013V8.359h-5.12v10c0,1.321-.885,2.076-2.4,2.076h-1.518c-1.264,0-2.781-.314-2.781-2.013V8.359H177.26V18.424c0,1.321-.885,2.076-2.4,2.076H167.9c-1.264,0-2.781-.314-2.781-2.013V8.359h-5.247v10c0,1.321-.885,2.076-2.4,2.076H150.52c-1.265,0-2.782-.314-2.782-2.013V8.359h-5.12V18.424c0,1.321-.885,2.076-2.4,2.076H136.3V8.359H128.71c-4.678,0-7.333,3.208-7.333,8.87a7.908,7.908,0,0,0,2.465,6.291,7.645,7.645,0,0,0,4.868,1.7H130.8A2.873,2.873,0,0,1,128.015,26.98Zm0.758-6.542c-1.707,0-2.276-1.762-2.276-3.208,0-1.95.38-4.278,2.276-4.278h2.4v7.486h-2.4ZM55.758,26.351a5.719,5.719,0,0,1-4.615-6.542,6.47,6.47,0,0,1,1.138-2.516l-3.919-5.033A11.919,11.919,0,0,0,48.3,29.245a12.171,12.171,0,0,0,6.258,3.334Zm12.327-1.132H99.314a7.756,7.756,0,0,0,4.994-1.573,8.459,8.459,0,0,0,5.058,1.573H111.2V25.156c4.741-.44,7.649-3.082,7.649-7.172V1h-5.12V17.732c0,1.824-1.265,2.768-3.983,2.768h-0.19c-1.264,0-2.781-.314-2.781-2.013V8.359h-5.121v10c0,1.321-.885,2.076-2.4,2.076H91.918V8.359H86.734V20.437h-9.04V8.359H72.511V20.437H69.034a11.518,11.518,0,0,0-3.6-8.178l-3.919,5.033A5.664,5.664,0,0,1,60.5,25.218a5.112,5.112,0,0,1-2.465,1.069l1.2,6.228A12.2,12.2,0,0,0,68.085,25.218Zm152.036,90.84a0.755,0.755,0,1,0-.759-0.755h0A0.73,0.73,0,0,0,220.121,116.058Zm48.614,5.41a1.518,1.518,0,0,1-3.035,0v-3.963h-1.2v3.963a1.517,1.517,0,0,1-3.034,0v-3.963h-1.2v5.473H242.31a0.3,0.3,0,0,1-.316-0.315v-5.1h-1.2v5.1a0.3,0.3,0,0,1-.316.315H221.006a0.3,0.3,0,0,1-.316-0.315v-5.1h-1.2v5.1a0.3,0.3,0,0,1-.316.315H189.714a3.361,3.361,0,0,0-6.7,0H149.951a0.3,0.3,0,0,1-.316-0.315V116h-1.2v6.668a1.534,1.534,0,0,0,1.517,1.51h33.188a3.348,3.348,0,0,0,6.448,0h29.586a1.524,1.524,0,0,1,1.9,0H240.54a1.524,1.524,0,0,1,1.9,0h19.155V123.8a2.614,2.614,0,0,0,3.6-.566,2.675,2.675,0,0,0,2.087,1.007,2.732,2.732,0,0,0,2.718-2.7v-4.026h-1.2v3.963h-0.063ZM186.3,125.431a2.2,2.2,0,1,1,2.15-2.265v0.063a2.18,2.18,0,0,1-2.15,2.2h0Zm54.05-.252a0.755,0.755,0,1,0,.759.755h0A0.767,0.767,0,0,0,240.35,125.179Zm2.276,0a0.755,0.755,0,1,0,.759.755h0a0.729,0.729,0,0,0-.759-0.755h0Zm-142.49-9.121-3.35,7.989h1.328L99,121.908h3.54l0.885,2.139h1.328l-3.287-7.989h-1.328Zm-0.7,4.718,1.327-3.271,1.328,3.271H99.441Zm18.522-2.642a1.208,1.208,0,0,1,1.391-1.007,2.059,2.059,0,0,1,1.58.692l0.822-.818a2.915,2.915,0,0,0-2.4-1.006c-1.644,0-2.655.943-2.655,2.139,0,2.956,4.235,1.824,4.235,3.648a1.367,1.367,0,0,1-1.58,1.258,2.564,2.564,0,0,1-2.086-.88l-0.822.818a3.545,3.545,0,0,0,2.845,1.258c1.833,0,2.845-1.007,2.845-2.391C122.2,118.826,117.963,119.958,117.963,118.134Zm-76.112,3.711-4.425-5.787H36.288v7.989h1.264v-5.725l4.488,5.725h1.075v-7.989H41.851v5.787Zm-21.494-5.787h1.264v7.989H20.357v-7.989Zm59.866,3.9-3.034-3.9H76.051v7.989h1.264v-5.788l2.908,3.649,2.908-3.649v5.788H84.4v-7.989H83.321ZM4.742,123.04a2.957,2.957,0,1,1,0-5.913,3.12,3.12,0,0,1,2.466,1.2l0.822-.817a4.157,4.157,0,0,0-5.816-.818,4.123,4.123,0,0,0,2.592,7.423,4.359,4.359,0,0,0,3.35-1.573l-0.822-.818A3.5,3.5,0,0,1,4.742,123.04Zm54.493-2.579h3.477v-1.132H59.235v-2.076H63.6v-1.195H57.971v7.989h5.753v-1.132H59.235v-2.454ZM34.77,59.818h9.735V94.04H34.77V59.818ZM39.7,44.657a5.221,5.221,0,1,0,0,10.443h0A5.221,5.221,0,1,0,39.7,44.657ZM84.269,94.04V72.211C84.269,64.473,78.959,59,71.5,59a12.16,12.16,0,0,0-10.367,5.1V59.818H51.46V94.04h9.735V73.721c0-3.712,3.224-6.605,7.27-6.605,3.856,0,6.511,2.894,6.511,7.172V94.04h9.293ZM106.205,59c-10.051,0-17.7,7.486-17.7,17.8,0,10.506,7.965,17.992,18.207,17.992,5.057,0,11-2.139,14.034-5.284l-6.2-6.291a12.586,12.586,0,0,1-7.9,3.02,8.328,8.328,0,0,1-8.154-6.228h24.78C123.337,67.178,117.015,59,106.205,59ZM98.619,73.092a8.293,8.293,0,0,1,7.965-5.536,7.224,7.224,0,0,1,7.4,5.536H98.619Zm12.264-17.929,3.6-7.36h-9.672l-3.666,7.36h9.735Zm121-.063a5.222,5.222,0,1,0-.126-10.443,5.279,5.279,0,0,0-5.184,5.158,5.182,5.182,0,0,0,5.184,5.284h0.126Zm-4.93,4.718h9.735V94.04h-9.735V59.818Zm29.269,26.988a19.874,19.874,0,0,1-11.506-3.837l-4.172,6.668a25.327,25.327,0,0,0,15.488,5.159C264.5,94.795,270,90.517,270,83.723c0-7.486-6.575-9.436-12.517-10.946-4.678-1.258-6.069-1.761-6.069-3.649,0-1.2,1.644-2.076,4.046-2.076a20.082,20.082,0,0,1,9.672,3.019l3.92-6.857A24.914,24.914,0,0,0,255.459,59c-8.092,0-13.465,4.655-13.4,11.135,0.063,6.731,5.5,8.681,12.58,10.38,3.54,0.944,6.069,1.573,6.069,3.712C260.643,85.736,258.81,86.805,256.218,86.805Zm-45.39-39h9.736V94.04h-9.736V47.8ZM168.789,76.866c0,9.751,8.6,17.929,18.839,17.929s18.649-8.178,18.649-17.929S197.742,59,187.628,59,168.789,67.178,168.789,76.866Zm18.839-9.688a9.789,9.789,0,0,1,0,19.564,9.777,9.777,0,0,1-9.483-9.814A9.638,9.638,0,0,1,187.628,67.178Zm-22.695,9.688c0-10.443-6.638-17.866-15.8-17.866a14.339,14.339,0,0,0-11.5,5.536V59.755h-9.736v45.608h9.736V89.133a13.958,13.958,0,0,0,11.5,5.6C158.295,94.795,164.933,87.372,164.933,76.866Zm-27.309,1.321V75.545c0.5-4.97,3.982-8.367,8.723-8.367,5.374,0,9.167,4.026,9.167,9.751s-3.793,9.814-9.167,9.814c-4.741-.063-8.218-3.523-8.723-8.556h0ZM0.507,73.532L9.8,75.356a8.57,8.57,0,0,1,9.925-6.794,8.2,8.2,0,0,1,3.6,1.636l7.586-5.85A18.034,18.034,0,0,0,5.5,64.221,17.733,17.733,0,0,0,.507,73.532Zm17.637,11.89A8.466,8.466,0,0,1,9.8,78.564L0.507,80.326a18.005,18.005,0,0,0,30.407,9.185l-7.586-5.85A8.591,8.591,0,0,1,18.144,85.421Z"/>
</svg>
