<svg width="108" height="30" viewBox="0 0 108 30" fill="none" xmlns="http://www.w3.org/2000/svg">
<g clip-path="url(#clip0_156_1091)">
<path fill-rule="evenodd" clip-rule="evenodd" d="M29.8667 14.9333C29.8667 23.1808 23.1808 29.8667 14.9333 29.8667C6.68588 29.8667 0 23.1808 0 14.9333C0 6.68588 6.68588 0 14.9333 0C23.1808 0 29.8667 6.68588 29.8667 14.9333ZM19.5333 8.53334H15.6H12.4667L11.9333 5.66667L9.6 11.7333H10.6667H13H14.3333H18.2667L16.9333 14.9333H20.4667L21.7333 11.7333C22.3333 10.2 21.2 8.53334 19.6 8.53334H19.5333ZM20.2 18.1333H19.2H16.8H15.6667H11.7333L13 14.9333H9.39999L8.13333 18.1333C7.53333 19.6667 8.66666 21.3333 10.2667 21.3333H10.4667H14.4H17.4L17.9333 24.2L20.2 18.1333Z" fill="white"/>
<path d="M39.4 26.5333C39 26.5333 38.6 26.4 38.3334 26.0667C38 25.8 37.8667 25.4 37.8667 24.9333V4.86666C37.8667 4.4 38 4.06666 38.3334 3.73333C38.6667 3.46666 39 3.26666 39.4 3.26666C39.8667 3.26666 40.2 3.4 40.5334 3.73333C40.8 4 41 4.4 41 4.86666V13.8L50.8667 3.93333C51.1334 3.66666 51.3334 3.53333 51.5334 3.46666C51.7334 3.4 51.9334 3.33333 52.1334 3.33333C52.6 3.33333 53 3.46666 53.2 3.8C53.4 4.06666 53.4667 4.46666 53.4667 4.86666C53.4 5.26666 53.2 5.66666 52.9334 5.99999L45.3334 13.6L53 24.0667C53.2667 24.4 53.3334 24.7333 53.2667 25.1333C53.2 25.5333 53.0667 25.8667 52.8667 26.1333C52.6667 26.4 52.3334 26.5333 51.9334 26.5333C51.4 26.5333 50.9334 26.3333 50.6667 25.8667L43.1334 15.6667L41 17.8V25C41 25.4667 40.8667 25.8 40.5334 26.1333C40.2 26.4 39.8667 26.5333 39.4 26.5333Z" fill="white"/>
<path d="M51.9334 27.0667C51.2 27.0667 50.6 26.7333 50.2 26.2L43.0667 16.5333L41.5334 18.0667V25C41.5334 25.6 41.3334 26.0667 40.9334 26.4667C40.1334 27.2667 38.8 27.2667 38 26.4667C37.6 26.0667 37.4 25.5333 37.4 25V4.86666C37.4 4.26666 37.6 3.79999 38 3.39999C38.8 2.59999 40.1334 2.59999 40.9334 3.39999C41.3334 3.79999 41.5334 4.26666 41.5334 4.86666V12.5333L50.4667 3.59999C50.7334 3.33332 51 3.13332 51.2667 2.99999C51.5334 2.86665 51.8 2.79999 52.1334 2.79999C53 2.79999 53.4 3.13332 53.6667 3.46665C54 3.86665 54.0667 4.39999 54 4.93332C53.9334 5.46665 53.6667 5.93332 53.2667 6.33332L46 13.6667L53.4667 23.8C53.8 24.2667 53.9334 24.7333 53.8667 25.2667C53.8 25.8 53.6 26.2 53.3334 26.5333C52.9334 26.8667 52.4667 27.0667 51.9334 27.0667ZM43.1334 14.8667L51 25.6C51.2 25.9333 51.4667 26.0667 51.8667 26.0667C52.2 26.0667 52.3334 25.9333 52.4 25.8667C52.5334 25.6667 52.6667 25.4667 52.6667 25.2C52.6667 24.9333 52.6 24.7333 52.4667 24.4667L44.4667 13.6L52.4 5.66665C52.6667 5.39999 52.8 5.13332 52.8 4.86666C52.8667 4.59999 52.8 4.39999 52.6667 4.19999C52.6 4.13332 52.4667 3.99999 52 3.99999C51.8667 3.99999 51.7334 3.99999 51.6 4.06666C51.5334 4.13332 51.3334 4.19999 51.1334 4.46665L40.4 15.2V4.86666C40.4 4.59999 40.3334 4.33332 40.1334 4.13332C39.7334 3.73332 39.1334 3.73332 38.6667 4.13332C38.4667 4.33332 38.4 4.53332 38.4 4.86666V25C38.4 25.2667 38.4667 25.5333 38.6667 25.7333C39.0667 26.1333 39.7334 26.1333 40.1334 25.7333C40.3334 25.5333 40.4 25.3333 40.4 25V17.6L43.1334 14.8667Z" fill="white"/>
<path d="M63.0001 26.6666C61.4001 26.6666 60.0001 26.3333 58.7334 25.6C57.5334 24.8666 56.5334 23.9333 55.8001 22.6666C55.0667 21.4 54.7334 20 54.7334 18.4C54.7334 16.8 55.0667 15.3333 55.8001 14.1333C56.5334 12.8666 57.4667 11.9333 58.7334 11.2C59.9334 10.4666 61.4001 10.1333 63.0001 10.1333C64.6001 10.1333 66.0001 10.4666 67.2001 11.2C68.4001 11.9333 69.4001 12.8666 70.1334 14.1333C70.8667 15.4 71.2001 16.8 71.2001 18.4C71.2001 20 70.8667 21.4 70.1334 22.6666C69.4667 23.9333 68.4667 24.8666 67.2667 25.6C66.0001 26.2666 64.6001 26.6666 63.0001 26.6666ZM63.0001 23.9333C64.0001 23.9333 64.9334 23.6666 65.7334 23.2C66.5334 22.7333 67.1334 22.0666 67.6001 21.2666C68.0667 20.4666 68.2667 19.4666 68.2667 18.4C68.2667 17.3333 68.0667 16.3333 67.6001 15.4666C67.1334 14.6 66.5334 13.9333 65.7334 13.4666C64.9334 13 64.0001 12.7333 63.0001 12.7333C62.0001 12.7333 61.0667 13 60.2667 13.4666C59.4667 13.9333 58.8667 14.6 58.4001 15.4666C57.9334 16.3333 57.7334 17.2666 57.7334 18.4C57.7334 19.4666 57.9334 20.4666 58.4001 21.2666C58.8667 22.1333 59.4667 22.7333 60.2667 23.2C61.0667 23.7333 62.0001 23.9333 63.0001 23.9333Z" fill="white"/>
<path d="M63.0001 27.2C61.3334 27.2 59.8001 26.8 58.4667 26.0666C57.1334 25.3333 56.1334 24.2666 55.4001 22.9333C54.6667 21.6 54.2667 20.0666 54.2667 18.4C54.2667 16.6666 54.6667 15.1333 55.4001 13.8666C56.1334 12.5333 57.2001 11.5333 58.4667 10.7333C59.8001 9.99997 61.2667 9.59998 63.0001 9.59998C64.6667 9.59998 66.2001 9.99997 67.4667 10.7333C68.8 11.4666 69.8001 12.5333 70.5334 13.8666C71.2667 15.2 71.6667 16.7333 71.6667 18.4C71.6667 20.0666 71.2667 21.6 70.5334 22.9333C69.8001 24.2666 68.7334 25.3333 67.4667 26.0666C66.2001 26.8 64.6667 27.2 63.0001 27.2ZM63.0001 10.6666C61.4667 10.6666 60.1334 11 59.0001 11.6666C57.8667 12.3333 56.9334 13.2 56.2667 14.4C55.6001 15.5333 55.2667 16.9333 55.2667 18.4666C55.2667 20 55.6001 21.3333 56.2667 22.4666C56.9334 23.6 57.8001 24.5333 59.0001 25.2C60.1334 25.8666 61.4667 26.2 63.0001 26.2C64.5334 26.2 65.8667 25.8666 67.0001 25.2C68.1334 24.5333 69.0667 23.6666 69.6667 22.4666C70.3334 21.3333 70.6667 19.9333 70.6667 18.4666C70.6667 16.9333 70.3334 15.6 69.6667 14.4C69.0001 13.2666 68.1334 12.3333 66.9334 11.6666C65.8 11 64.4667 10.6666 63.0001 10.6666ZM63.0001 24.4666C61.8667 24.4666 60.8667 24.2 60.0001 23.6666C59.1334 23.1333 58.4001 22.4 57.9334 21.5333C57.4667 20.6 57.2001 19.6 57.2001 18.4C57.2001 17.2 57.4667 16.1333 57.9334 15.2666C58.4001 14.3333 59.1334 13.6 60.0001 13.0666C60.8667 12.5333 61.8667 12.2666 63.0001 12.2666C64.1334 12.2666 65.1334 12.5333 66.0001 13.0666C66.8667 13.6 67.5334 14.3333 68.0667 15.2666C68.5334 16.2 68.8 17.2666 68.8 18.4C68.8 19.6 68.5334 20.6 68.0667 21.5333C67.6001 22.4666 66.8667 23.2 66.0001 23.7333C65.1334 24.2666 64.1334 24.4666 63.0001 24.4666ZM63.0001 13.3333C62.0667 13.3333 61.2667 13.5333 60.5334 14C59.8001 14.4 59.2667 15 58.8667 15.8C58.4667 16.5333 58.2667 17.4666 58.2667 18.4666C58.2667 19.4666 58.4667 20.3333 58.8667 21.0666C59.2667 21.8 59.8667 22.4 60.5334 22.8C61.9334 23.6666 64.0667 23.6666 65.4667 22.8C66.2001 22.4 66.7334 21.8 67.1334 21.0666C67.5334 20.3333 67.7334 19.4 67.7334 18.4C67.7334 17.4 67.5334 16.5333 67.1334 15.7333C66.7334 15 66.2001 14.4 65.4667 13.9333C64.7334 13.5333 63.9334 13.3333 63.0001 13.3333Z" fill="white"/>
<path d="M76.0667 13.0666C75.1334 13.0666 74.6667 12.6 74.6667 11.6666C74.6667 10.7333 75.1334 10.2666 76.0667 10.2666H86.2C87.1334 10.2666 87.6 10.7333 87.6 11.6666C87.6 12.6 87.1334 13.0666 86.2 13.0666H76.0667ZM76.3334 26.5333C75.4 26.5333 74.9333 26.0666 74.9333 25.1333C74.9333 24.2 75.4 23.7333 76.3334 23.7333H86.4667C87.4 23.7333 87.8667 24.2 87.8667 25.1333C87.8667 26.0666 87.4 26.5333 86.4667 26.5333H76.3334ZM77.2667 25.9333L75.2667 24.1333L85.4 10.8L87.4 12.6L77.2667 25.9333Z" fill="white"/>
<path d="M86.5334 27.0666H76.3334C75.1334 27.0666 74.4 26.3333 74.4 25.1333C74.4 24.8 74.4667 24.5333 74.5334 24.3333L74.4667 24.2666L74.7334 23.9333C74.8 23.8666 74.8 23.8 74.8667 23.8L82.6 13.6H76.0667C74.8667 13.6 74.1334 12.8666 74.1334 11.6666C74.1334 10.4666 74.8667 9.73331 76.0667 9.73331H86.2C87.4 9.73331 88.1334 10.4666 88.1334 11.6666C88.1334 12 88.0667 12.2666 88 12.5333L88.0667 12.6L87.8 12.9333C87.7334 13 87.7334 13.0666 87.6667 13.0666L79.9334 23.2666H86.4C87.6 23.2666 88.3334 24 88.3334 25.2C88.3334 26.4 87.7334 27.0666 86.5334 27.0666ZM77.8667 26H86.4667C87.1334 26 87.3334 25.8 87.3334 25.1333C87.3334 24.4666 87.1334 24.2666 86.4667 24.2666H79.1334L77.8667 26ZM75.4667 25.1333C75.4667 25.8 75.6667 26 76.3334 26H76.4667L75.4667 25.1333ZM76.1334 24.2666L77.1334 25.2L77.8 24.2666H76.3334C76.2667 24.2666 76.2 24.2666 76.1334 24.2666ZM76.6667 23.2H78.6667L85.9334 13.6H83.9334L76.6667 23.2ZM84.7334 12.5333H86.2C86.2667 12.5333 86.3334 12.5333 86.4 12.5333L85.4 11.6L84.7334 12.5333ZM76.0667 10.8C75.4 10.8 75.2 11 75.2 11.6666C75.2 12.3333 75.4 12.5333 76.0667 12.5333H83.4L84.7334 10.8H76.0667ZM86.1334 10.8L87.0667 11.6666C87.0667 11 86.8667 10.8 86.2 10.8H86.1334Z" fill="white"/>
<path d="M98.5334 26.6666C96.9334 26.6666 95.5334 26.3333 94.2667 25.6C93.0667 24.8666 92.0667 23.9333 91.3334 22.6666C90.6001 21.4 90.2667 20 90.2667 18.4C90.2667 16.8 90.6001 15.3333 91.3334 14.1333C92.0667 12.8666 93.0001 11.9333 94.2667 11.2C95.4667 10.4666 96.9334 10.1333 98.5334 10.1333C100.133 10.1333 101.533 10.4666 102.733 11.2C103.933 11.9333 104.933 12.8666 105.667 14.1333C106.4 15.4 106.733 16.8 106.733 18.4C106.733 20 106.4 21.4 105.667 22.6666C105 23.9333 104 24.8666 102.8 25.6C101.6 26.2666 100.133 26.6666 98.5334 26.6666ZM98.5334 23.9333C99.5334 23.9333 100.467 23.6666 101.267 23.2C102.067 22.7333 102.667 22.0666 103.133 21.2666C103.6 20.4666 103.8 19.4666 103.8 18.4C103.8 17.3333 103.6 16.3333 103.133 15.4666C102.667 14.6 102.067 13.9333 101.267 13.4666C100.467 13 99.5334 12.7333 98.5334 12.7333C97.5334 12.7333 96.6001 13 95.8001 13.4666C95.0001 13.9333 94.4001 14.6 93.9334 15.4666C93.4667 16.3333 93.2667 17.2666 93.2667 18.4C93.2667 19.4666 93.4667 20.4666 93.9334 21.2666C94.4001 22.1333 95.0001 22.7333 95.8001 23.2C96.6001 23.7333 97.5334 23.9333 98.5334 23.9333Z" fill="white"/>
<path d="M98.5334 27.2C96.8667 27.2 95.3334 26.8 94.0001 26.0666C92.6667 25.3333 91.6667 24.2666 90.9334 22.9333C90.2 21.6 89.8 20.0666 89.8 18.4C89.8 16.6666 90.2 15.1333 90.9334 13.8666C91.6667 12.5333 92.7334 11.5333 94.0001 10.7333C95.3334 9.99997 96.8001 9.59998 98.5334 9.59998C100.2 9.59998 101.733 9.99997 103 10.7333C104.333 11.4666 105.333 12.5333 106.067 13.8666C106.8 15.2 107.2 16.7333 107.2 18.4C107.2 20.0666 106.8 21.6 106.067 22.9333C105.333 24.2666 104.267 25.3333 103 26.0666C101.8 26.8 100.267 27.2 98.5334 27.2ZM98.5334 10.6666C97.0001 10.6666 95.6667 11 94.5334 11.6666C93.4001 12.3333 92.4667 13.2 91.8 14.4C91.1334 15.5333 90.8 16.9333 90.8 18.4666C90.8 20 91.1334 21.3333 91.8 22.4666C92.4667 23.6 93.3334 24.5333 94.5334 25.2C95.6667 25.8666 97.0001 26.2 98.5334 26.2C100.067 26.2 101.4 25.8666 102.533 25.2C103.667 24.5333 104.6 23.6666 105.2 22.4666C105.867 21.3333 106.2 19.9333 106.2 18.4666C106.2 16.9333 105.867 15.6 105.2 14.4C104.533 13.2666 103.667 12.3333 102.467 11.6666C101.4 11 100.067 10.6666 98.5334 10.6666ZM98.5334 24.4666C97.4001 24.4666 96.4001 24.2 95.5334 23.6666C94.6667 23.1333 93.9334 22.4 93.4667 21.5333C93 20.6 92.7334 19.6 92.7334 18.4C92.7334 17.2 93 16.1333 93.4667 15.2666C93.9334 14.3333 94.6667 13.6 95.5334 13.0666C96.4001 12.5333 97.4001 12.2666 98.5334 12.2666C99.6667 12.2666 100.667 12.5333 101.533 13.0666C102.4 13.6 103.067 14.3333 103.6 15.2666C104.067 16.2 104.333 17.2666 104.333 18.4C104.333 19.6 104.067 20.6 103.6 21.5333C103.133 22.4666 102.4 23.2 101.533 23.7333C100.667 24.2666 99.6667 24.4666 98.5334 24.4666ZM98.5334 13.3333C97.6001 13.3333 96.8001 13.5333 96.0667 14C95.3334 14.4 94.8001 15 94.4001 15.8C94.0001 16.5333 93.8 17.4666 93.8 18.4666C93.8 19.4666 94.0001 20.3333 94.4001 21.0666C94.8001 21.8 95.4001 22.4 96.0667 22.8C97.4667 23.6666 99.6 23.6666 101 22.8C101.733 22.4 102.267 21.8 102.667 21.0666C103.067 20.3333 103.267 19.4 103.267 18.4C103.267 17.4 103.067 16.5333 102.667 15.7333C102.267 15 101.733 14.4 101 13.9333C100.333 13.5333 99.4667 13.3333 98.5334 13.3333Z" fill="white"/>
</g>
<defs>
<clipPath id="clip0_156_1091">
<rect width="107.333" height="30" fill="white"/>
</clipPath>
</defs>
</svg>
