<svg width="164" height="137" viewBox="0 0 164 137" fill="none" xmlns="http://www.w3.org/2000/svg">
<path d="M35.7932 114.929C35.9777 115.054 36.1515 115.02 36.276 114.836L36.665 114.259C36.7895 114.074 36.7557 113.901 36.5712 113.776L34.5532 112.415C33.8036 111.909 33.1277 112.04 32.622 112.79L29.8988 116.826C29.3931 117.575 29.5244 118.251 30.274 118.757L32.292 120.119C32.4765 120.243 32.6503 120.209 32.7748 120.025L33.1638 119.448C33.2883 119.264 33.2545 119.09 33.07 118.965L31.3403 117.798C31.1558 117.674 31.122 117.5 31.2465 117.316L31.6355 116.739C31.76 116.554 31.9338 116.521 32.1183 116.645L33.8481 117.812C34.0326 117.937 34.2064 117.903 34.3309 117.718L34.7199 117.142C34.8444 116.957 34.8106 116.784 34.6261 116.659L32.8964 115.492C32.7119 115.368 32.6781 115.194 32.8026 115.009L33.5806 113.856C33.7051 113.672 33.8789 113.638 34.0634 113.762L35.7932 114.929Z" fill="#4BA3C3"/>
<path d="M38.6807 115.209C37.9041 114.758 37.2427 114.933 36.7912 115.709L33.8388 120.787C33.7277 120.979 33.7727 121.149 33.9639 121.26L34.5613 121.607C34.7525 121.718 34.9225 121.673 35.0337 121.482L36.0757 119.69C36.1868 119.499 36.3569 119.454 36.5481 119.565L37.1455 119.912C37.3367 120.023 37.3817 120.193 37.2705 120.384L36.2285 122.177C36.1174 122.368 36.1624 122.538 36.3536 122.649L36.951 122.996C37.1422 123.108 37.3122 123.063 37.4234 122.871L40.3757 117.793C40.8273 117.017 40.6522 116.355 39.8756 115.904L38.6807 115.209ZM38.8822 116.925C39.0734 117.036 39.1184 117.206 39.0072 117.397L38.3126 118.592C38.2014 118.783 38.0313 118.828 37.8402 118.717L37.2427 118.37C37.0516 118.259 37.0066 118.089 37.1177 117.898L37.8124 116.703C37.9235 116.512 38.0936 116.466 38.2848 116.578L38.8822 116.925Z" fill="#4BA3C3"/>
<path d="M42.8194 122.776C42.8256 122.732 42.8629 122.72 42.9064 122.726C43.3848 122.732 43.7825 122.465 44.0621 121.906L45.0005 120.03C45.4044 119.222 45.187 118.57 44.3793 118.166L42.2047 117.078C42.0059 116.979 41.8382 117.035 41.7387 117.233L38.6315 123.446C38.5321 123.645 38.588 123.813 38.7868 123.912L39.4081 124.223C39.6069 124.323 39.7747 124.267 39.8741 124.068L40.8001 122.216C40.8995 122.018 41.0673 121.962 41.2661 122.061L41.3158 122.086C41.5022 122.179 41.5705 122.322 41.5146 122.527L41.0484 124.702C41.0049 124.913 41.0608 125.05 41.2472 125.143L41.8809 125.46C42.1046 125.572 42.2724 125.485 42.3159 125.242L42.8194 122.776ZM43.4348 119.278C43.6336 119.377 43.6895 119.545 43.5901 119.744L42.9811 120.961C42.8816 121.16 42.7139 121.216 42.5151 121.117L41.8937 120.806C41.6949 120.707 41.639 120.539 41.7385 120.34L42.3475 119.122C42.4469 118.923 42.6147 118.868 42.8135 118.967L43.4348 119.278Z" fill="#4BA3C3"/>
<path d="M45.545 125.573C45.3403 125.486 45.2738 125.322 45.3604 125.118L47.5247 119.999C47.6113 119.794 47.5448 119.63 47.34 119.544L46.7002 119.273C46.4955 119.187 46.3316 119.253 46.245 119.458L43.9454 124.897C43.5937 125.728 43.8522 126.366 44.684 126.717L47.2434 127.799C47.4481 127.886 47.612 127.82 47.6985 127.615L47.9691 126.975C48.0556 126.77 47.9892 126.606 47.7844 126.52L45.545 125.573Z" fill="#4BA3C3"/>
<path d="M54.0136 122.116C53.8037 122.043 53.6667 122.098 53.537 122.259L52.3042 123.932C52.2682 123.993 52.2288 123.98 52.2255 123.905L52.2254 121.8C52.2372 121.598 52.1381 121.46 51.9414 121.392L51.3119 121.172C51.0627 121.084 50.9073 121.192 50.895 121.438L50.7831 126.094C50.7871 126.125 50.7779 126.151 50.7688 126.177L49.9801 128.433C49.9067 128.643 49.9835 128.802 50.1934 128.876L50.8622 129.109C51.0721 129.183 51.2314 129.106 51.3047 128.896L52.0934 126.64C52.1026 126.614 52.1248 126.592 52.134 126.566L54.8033 122.804C54.9468 122.604 54.8792 122.419 54.6431 122.336L54.0136 122.116Z" fill="#4BA3C3"/>
<path d="M63.1399 127.1C63.3577 127.149 63.5078 127.054 63.5567 126.836L63.5781 126.741C63.8746 125.42 63.3286 124.539 61.9942 124.24C60.6599 123.94 59.7899 124.503 59.4934 125.824L59.3559 126.437C59.1083 127.539 59.5729 128.273 60.6757 128.521C61.3429 128.67 61.6997 128.865 61.4738 129.744C61.3624 130.176 61.0742 130.441 60.6249 130.34C60.1756 130.239 59.9991 129.942 60.0969 129.506L60.1183 129.411C60.1672 129.193 60.0722 129.043 59.8544 128.994L59.1736 128.841C58.9557 128.792 58.8057 128.887 58.7568 129.105L58.7354 129.2C58.4389 130.521 58.9849 131.402 60.3192 131.701C61.6536 132.001 62.5236 131.438 62.8201 130.117L62.9821 129.396C63.2296 128.293 62.765 127.559 61.6622 127.312C60.995 127.162 60.6443 126.94 60.855 126.129C60.9664 125.697 61.2393 125.501 61.6886 125.602C62.1379 125.702 62.3143 125.999 62.2165 126.435L62.1951 126.53C62.1462 126.748 62.2413 126.898 62.4591 126.947L63.1399 127.1Z" fill="#4BA3C3"/>
<path d="M68.8764 125.898C68.911 125.679 68.8069 125.536 68.5873 125.501L64.8131 124.907C64.5935 124.872 64.4506 124.976 64.416 125.196L64.3079 125.882C64.2733 126.102 64.3774 126.245 64.597 126.279L65.4616 126.416C65.6812 126.45 65.7853 126.593 65.7507 126.813L64.8861 132.302C64.8515 132.522 64.9556 132.665 65.1752 132.7L65.8614 132.808C66.081 132.842 66.224 132.738 66.2585 132.519L67.1231 127.029C67.1577 126.809 67.3007 126.705 67.5203 126.74L68.3712 126.874C68.5908 126.908 68.7337 126.804 68.7683 126.585L68.8764 125.898Z" fill="#4BA3C3"/>
<path d="M70.8075 125.742C69.9084 125.657 69.3784 126.095 69.2931 126.994L68.7354 132.872C68.7144 133.094 68.827 133.23 69.0483 133.251L69.7399 133.317C69.9612 133.338 70.0975 133.225 70.1185 133.004L70.3153 130.929C70.3363 130.708 70.4726 130.595 70.6939 130.616L71.3855 130.682C71.6068 130.703 71.7195 130.839 71.6985 131.06L71.5016 133.135C71.4806 133.356 71.5933 133.493 71.8146 133.514L72.5062 133.579C72.7275 133.6 72.8638 133.487 72.8848 133.266L73.4425 127.388C73.5278 126.489 73.0896 125.959 72.1906 125.873L70.8075 125.742ZM71.7136 127.224C71.9349 127.245 72.0476 127.381 72.0266 127.602L71.8953 128.986C71.8743 129.207 71.738 129.319 71.5167 129.298L70.8252 129.233C70.6039 129.212 70.4912 129.076 70.5122 128.854L70.6434 127.471C70.6644 127.25 70.8007 127.137 71.022 127.158L71.7136 127.224Z" fill="#4BA3C3"/>
<path d="M77.7082 130.983C77.6956 130.941 77.7243 130.914 77.7663 130.902C78.2032 130.707 78.452 130.297 78.4711 129.672L78.5352 127.575C78.5627 126.673 78.0916 126.172 77.1889 126.144L74.7587 126.07C74.5365 126.063 74.4077 126.184 74.4009 126.406L74.1887 133.35C74.1819 133.572 74.3031 133.701 74.5253 133.708L75.2197 133.729C75.4418 133.736 75.5706 133.615 75.5774 133.392L75.6407 131.323C75.6474 131.101 75.7762 130.98 75.9984 130.987L76.054 130.988C76.2623 130.995 76.3843 131.096 76.4196 131.305L76.9093 133.475C76.9585 133.685 77.0666 133.785 77.2749 133.792L77.9832 133.813C78.2331 133.821 78.3489 133.672 78.2867 133.434L77.7082 130.983ZM76.7984 127.55C77.0206 127.557 77.1418 127.686 77.135 127.908L77.0934 129.269C77.0866 129.491 76.9578 129.612 76.7356 129.605L76.0413 129.584C75.8191 129.577 75.6979 129.449 75.7047 129.226L75.7463 127.865C75.7531 127.643 75.8819 127.522 76.1041 127.529L76.7984 127.55Z" fill="#4BA3C3"/>
<path d="M83.597 126.397C83.5901 126.175 83.4611 126.053 83.239 126.06L79.4201 126.18C79.1979 126.187 79.0769 126.316 79.0839 126.539L79.1057 127.233C79.1127 127.455 79.2416 127.576 79.4638 127.569L80.3386 127.542C80.5608 127.535 80.6897 127.656 80.6967 127.878L80.8713 133.433C80.8782 133.655 81.0072 133.776 81.2293 133.769L81.9237 133.747C82.1459 133.74 82.2669 133.611 82.2599 133.389L82.0854 127.834C82.0784 127.612 82.1994 127.483 82.4216 127.476L83.2826 127.449C83.5048 127.442 83.6258 127.313 83.6189 127.091L83.597 126.397Z" fill="#4BA3C3"/>
<path d="M92.5739 125.331C92.5413 125.111 92.3992 125.006 92.1793 125.039L88.4 125.599C88.1801 125.632 88.0748 125.774 88.1074 125.994L88.2093 126.681C88.242 126.901 88.384 127.006 88.6039 126.974L89.4697 126.845C89.6896 126.813 89.8316 126.918 89.8643 127.138L90.68 132.635C90.7126 132.855 90.8546 132.96 91.0745 132.928L91.7617 132.826C91.9816 132.793 92.0869 132.651 92.0543 132.431L91.2386 126.934C91.206 126.714 91.3113 126.572 91.5312 126.539L92.3832 126.413C92.6031 126.38 92.7085 126.238 92.6758 126.018L92.5739 125.331Z" fill="#4BA3C3"/>
<path d="M94.3096 131.009C94.4976 131.893 95.0744 132.267 95.9577 132.079L97.3166 131.79C98.1999 131.602 98.5744 131.025 98.3865 130.142L97.3746 125.386C97.1867 124.502 96.6099 124.128 95.7266 124.316L94.3676 124.605C93.4843 124.793 93.1099 125.37 93.2978 126.253L94.3096 131.009ZM95.6731 125.734C95.8905 125.687 96.0388 125.784 96.0851 126.001L96.9553 130.091C97.0015 130.309 96.9052 130.457 96.6878 130.503L96.0083 130.648C95.7909 130.694 95.6426 130.598 95.5963 130.381L94.7261 126.29C94.6799 126.073 94.7762 125.924 94.9936 125.878L95.6731 125.734Z" fill="#4BA3C3"/>
<path d="M103.379 122.2C102.525 122.493 102.222 123.11 102.515 123.965L104.426 129.551C104.498 129.762 104.657 129.84 104.867 129.768L105.525 129.543C105.735 129.471 105.813 129.312 105.741 129.102L105.066 127.13C104.994 126.92 105.072 126.761 105.282 126.689L105.94 126.464C106.15 126.392 106.309 126.47 106.381 126.68L107.055 128.652C107.127 128.862 107.286 128.94 107.497 128.868L108.154 128.643C108.364 128.571 108.442 128.412 108.37 128.202L106.458 122.615C106.166 121.761 105.548 121.458 104.694 121.751L103.379 122.2ZM104.815 123.178C105.025 123.106 105.184 123.183 105.256 123.394L105.706 124.708C105.778 124.919 105.7 125.077 105.49 125.149L104.833 125.374C104.622 125.446 104.463 125.368 104.392 125.158L103.942 123.844C103.87 123.633 103.948 123.474 104.158 123.402L104.815 123.178Z" fill="#4BA3C3"/>
<path d="M113.617 117.981C113.416 118.077 113.358 118.244 113.454 118.444L114.659 120.948C114.756 121.149 114.697 121.315 114.497 121.412L113.871 121.713C113.671 121.81 113.504 121.751 113.407 121.551L112.202 119.047C112.106 118.847 111.939 118.788 111.739 118.885L111.113 119.186C110.912 119.282 110.854 119.449 110.95 119.649L113.963 125.909C114.059 126.109 114.226 126.168 114.426 126.071L115.052 125.77C115.253 125.674 115.311 125.507 115.215 125.307L114.311 123.429C114.215 123.228 114.273 123.061 114.473 122.965L115.099 122.664C115.3 122.567 115.467 122.626 115.563 122.826L116.467 124.704C116.563 124.904 116.73 124.963 116.93 124.866L117.556 124.565C117.757 124.469 117.815 124.302 117.719 124.102L114.706 117.842C114.61 117.642 114.443 117.583 114.242 117.68L113.617 117.981Z" fill="#4BA3C3"/>
<path d="M119.312 116.482C119.505 116.373 119.553 116.203 119.445 116.009L119.105 115.403C118.996 115.209 118.826 115.161 118.632 115.27L116.511 116.459C115.724 116.901 115.538 117.563 115.979 118.351L118.358 122.592C118.8 123.38 119.462 123.566 120.25 123.124L122.37 121.934C122.564 121.826 122.612 121.655 122.503 121.462L122.163 120.856C122.055 120.662 121.884 120.614 121.691 120.723L119.873 121.742C119.679 121.851 119.509 121.803 119.4 121.609L119.06 121.003C118.952 120.81 118.999 120.639 119.193 120.531L121.011 119.511C121.205 119.402 121.253 119.232 121.144 119.038L120.804 118.432C120.695 118.238 120.525 118.191 120.331 118.299L118.514 119.319C118.32 119.428 118.149 119.38 118.041 119.186L117.361 117.974C117.252 117.78 117.3 117.61 117.494 117.501L119.312 116.482Z" fill="#4BA3C3"/>
<path d="M120.854 113.933C120.096 114.42 119.95 115.092 120.438 115.85L123.626 120.81C123.746 120.997 123.919 121.034 124.105 120.914L124.689 120.539C124.876 120.419 124.913 120.247 124.793 120.06L123.668 118.309C123.548 118.123 123.585 117.95 123.772 117.83L124.355 117.455C124.542 117.335 124.715 117.372 124.835 117.559L125.96 119.31C126.08 119.496 126.253 119.534 126.44 119.414L127.023 119.039C127.21 118.919 127.247 118.746 127.127 118.559L123.939 113.599C123.451 112.841 122.78 112.695 122.021 113.183L120.854 113.933ZM122.48 114.537C122.667 114.417 122.839 114.455 122.959 114.641L123.709 115.808C123.829 115.995 123.792 116.168 123.605 116.288L123.022 116.663C122.835 116.783 122.662 116.745 122.542 116.559L121.792 115.392C121.672 115.205 121.71 115.032 121.896 114.912L122.48 114.537Z" fill="#4BA3C3"/>
<path d="M128.963 115.91C128.785 116.042 128.61 116.016 128.477 115.838L125.165 111.375C125.033 111.196 124.858 111.171 124.68 111.303L124.122 111.717C123.943 111.849 123.917 112.024 124.05 112.203L127.569 116.945C128.107 117.67 128.787 117.77 129.512 117.232L131.744 115.576C131.922 115.444 131.948 115.269 131.816 115.09L131.402 114.533C131.269 114.354 131.094 114.328 130.916 114.461L128.963 115.91Z" fill="#4BA3C3"/>
<path d="M131.261 106.489C131.118 106.319 130.941 106.304 130.772 106.448L127.851 108.911C127.681 109.054 127.666 109.23 127.809 109.4L128.257 109.931C128.4 110.101 128.576 110.116 128.746 109.973L129.415 109.409C129.585 109.265 129.762 109.28 129.905 109.45L133.488 113.699C133.631 113.869 133.807 113.884 133.977 113.74L134.508 113.292C134.678 113.149 134.693 112.973 134.55 112.803L130.967 108.555C130.824 108.385 130.839 108.208 131.009 108.065L131.667 107.51C131.837 107.366 131.852 107.19 131.709 107.02L131.261 106.489Z" fill="#4BA3C3"/>
<path d="M133.658 103.732C133.497 103.885 133.493 104.062 133.647 104.223L135.567 106.231C135.721 106.392 135.717 106.569 135.556 106.722L135.054 107.202C134.893 107.356 134.716 107.352 134.563 107.191L132.643 105.183C132.489 105.022 132.312 105.018 132.152 105.172L131.649 105.652C131.489 105.805 131.485 105.982 131.638 106.143L136.439 111.164C136.592 111.325 136.769 111.329 136.93 111.175L137.432 110.695C137.593 110.542 137.596 110.365 137.443 110.204L136.003 108.698C135.849 108.537 135.853 108.36 136.014 108.207L136.516 107.727C136.677 107.573 136.853 107.577 137.007 107.738L138.447 109.244C138.601 109.405 138.778 109.409 138.938 109.255L139.44 108.775C139.601 108.621 139.605 108.445 139.451 108.284L134.651 103.263C134.498 103.102 134.321 103.098 134.16 103.251L133.658 103.732Z" fill="#4BA3C3"/>
<path d="M137.157 100.066C137.007 100.23 137.003 100.377 137.099 100.56L138.148 102.355C138.19 102.412 138.162 102.443 138.092 102.416L136.159 101.583C135.978 101.492 135.813 101.529 135.672 101.682L135.22 102.173C135.042 102.368 135.079 102.553 135.3 102.662L139.531 104.607C139.561 104.616 139.582 104.635 139.602 104.654L141.361 106.271C141.525 106.421 141.702 106.414 141.852 106.25L142.332 105.728C142.482 105.565 142.475 105.388 142.311 105.238L140.552 103.62C140.531 103.602 140.52 103.573 140.5 103.554L138.102 99.6134C137.975 99.4024 137.778 99.3911 137.609 99.5752L137.157 100.066Z" fill="#4BA3C3"/>
<path d="M144.441 93.0447C144.57 92.8642 144.542 92.6897 144.361 92.5599L143.797 92.1544C143.617 92.0247 143.442 92.0532 143.312 92.2337L141.893 94.208C141.366 94.9412 141.477 95.6199 142.211 96.147L147.005 99.5935C147.186 99.7233 147.36 99.6947 147.49 99.5142L147.895 98.9502C148.025 98.7697 147.997 98.5952 147.816 98.4654L146.124 97.249C145.943 97.1192 145.915 96.9447 146.045 96.7642L147.245 95.0946C147.374 94.9141 147.346 94.7396 147.165 94.6098L146.601 94.2043C146.421 94.0746 146.246 94.1031 146.117 94.2836L144.916 95.9533C144.787 96.1338 144.612 96.1623 144.432 96.0326L143.303 95.2216C143.123 95.0919 143.094 94.9174 143.224 94.7369L144.441 93.0447Z" fill="#4BA3C3"/>
<path d="M145.642 88.6011C145.524 88.7895 145.564 88.9618 145.752 89.0797L150.464 92.0272C150.652 92.1451 150.692 92.3174 150.574 92.5059L150.206 93.0948C150.088 93.2832 149.915 93.3229 149.727 93.205L145.016 90.2576C144.827 90.1397 144.655 90.1794 144.537 90.3678L144.168 90.9568C144.051 91.1452 144.09 91.3175 144.279 91.4354L149.285 94.5671C150.05 95.0461 150.72 94.8917 151.199 94.1261L151.936 92.9483C152.415 92.1827 152.261 91.5125 151.495 91.0335L146.489 87.9019C146.301 87.784 146.129 87.8237 146.011 88.0121L145.642 88.6011Z" fill="#4BA3C3"/>
<path d="M148.908 83.4899C148.713 83.3839 148.543 83.4341 148.437 83.6295L146.614 86.9876C146.508 87.1829 146.559 87.3525 146.754 87.4585L147.365 87.7899C147.56 87.8959 147.73 87.8457 147.836 87.6503L148.253 86.881C148.359 86.6856 148.529 86.6354 148.724 86.7414L153.608 89.3923C153.804 89.4983 153.973 89.4481 154.079 89.2527L154.411 88.6422C154.517 88.4468 154.467 88.2772 154.271 88.1712L149.387 85.5203C149.191 85.4143 149.141 85.2447 149.247 85.0493L149.658 84.2922C149.764 84.0969 149.714 83.9273 149.518 83.8213L148.908 83.4899Z" fill="#4BA3C3"/>
<path d="M150.081 80.0342C149.987 80.2365 150.048 80.4028 150.251 80.4962L155.308 82.8303C155.51 82.9237 155.572 83.09 155.478 83.2923L155.186 83.9244C155.093 84.1267 154.927 84.188 154.724 84.0946L149.667 81.7605C149.465 81.6671 149.299 81.7284 149.205 81.9307L148.913 82.5628C148.82 82.7651 148.881 82.9314 149.084 83.0248L154.457 85.5048C155.279 85.8841 155.926 85.6458 156.305 84.824L156.888 83.5597C157.268 82.7379 157.029 82.0912 156.208 81.7119L150.834 79.2319C150.632 79.1385 150.466 79.1998 150.372 79.4021L150.081 80.0342Z" fill="#4BA3C3"/>
<path d="M156.657 76.8617C156.613 76.8595 156.597 76.8236 156.599 76.7797C156.562 76.3027 156.259 75.9312 155.677 75.704L153.722 74.9415C152.881 74.6134 152.251 74.8897 151.923 75.731L151.039 77.9961C150.959 78.2032 151.03 78.3652 151.237 78.4459L157.709 80.9705C157.916 81.0513 158.078 80.9802 158.158 80.7731L158.411 80.126C158.492 79.9189 158.421 79.7569 158.214 79.6761L156.285 78.9238C156.078 78.843 156.007 78.6811 156.088 78.474L156.108 78.4222C156.183 78.2281 156.32 78.1469 156.529 78.1838L158.737 78.4487C158.951 78.4727 159.082 78.4045 159.158 78.2103L159.416 77.5502C159.507 77.3172 159.405 77.1581 159.159 77.137L156.657 76.8617ZM153.117 76.5696C153.198 76.3625 153.36 76.2914 153.567 76.3722L154.835 76.867C155.042 76.9478 155.114 77.1098 155.033 77.3169L154.78 77.964C154.699 78.1711 154.538 78.2422 154.33 78.1614L153.062 77.6666C152.855 77.5858 152.784 77.4239 152.865 77.2168L153.117 76.5696Z" fill="#4BA3C3"/>
<path d="M155.192 70.4301C155.26 70.2183 155.179 70.0612 154.967 69.9938L154.305 69.7829C154.093 69.7154 153.936 69.7966 153.869 70.0084L153.131 72.3251C152.856 73.1856 153.172 73.7965 154.033 74.0706L158.666 75.5466C159.526 75.8207 160.137 75.505 160.411 74.6445L161.149 72.3279C161.217 72.1161 161.136 71.959 160.924 71.8915L160.262 71.6806C160.05 71.6132 159.893 71.6943 159.826 71.9062L159.193 73.8919C159.126 74.1037 158.969 74.1849 158.757 74.1174L158.095 73.9065C157.883 73.839 157.802 73.682 157.869 73.4701L158.502 71.4844C158.569 71.2726 158.488 71.1155 158.276 71.0481L157.614 70.8372C157.403 70.7697 157.246 70.8509 157.178 71.0627L156.545 73.0484C156.478 73.2602 156.321 73.3414 156.109 73.2739L154.785 72.8522C154.573 72.7848 154.492 72.6277 154.56 72.4159L155.192 70.4301Z" fill="#4BA3C3"/>
<path d="M61.4618 69.4507C60.2257 68.2572 58.7604 67.3268 57.1545 66.7156C55.4162 66.0565 53.5703 65.727 51.7113 65.7438C49.9288 65.739 48.164 66.0962 46.5237 66.7937C43.2541 68.125 40.6009 70.6313 39.0857 73.8198C38.332 75.4362 37.9468 77.1998 37.9577 78.9832C37.9402 80.7569 38.2619 82.5177 38.9053 84.1707C39.5264 85.6968 40.4411 87.0861 41.5973 88.2599C42.758 89.4195 44.1393 90.3349 45.6596 90.9519C47.3085 91.6123 49.071 91.9425 50.8471 91.9237C52.7053 91.9283 54.5521 91.6347 56.3173 91.0542C58.0015 90.5288 59.5702 89.6873 60.9395 88.5748C62.288 87.4707 63.3887 86.0948 64.1699 84.5368C65.0113 82.8295 65.4313 80.9454 65.3948 79.0424C65.419 77.2001 65.0625 75.3726 64.3476 73.6745C63.6901 72.081 62.7072 70.6424 61.4618 69.4507ZM58.7697 81.2068C58.6672 82.0428 58.5053 82.8704 58.2852 83.6834C58.0629 84.4861 57.7627 85.2651 57.3887 86.0093C57.0283 86.722 56.5638 87.3771 56.0104 87.953C55.4434 88.5503 54.7564 89.0208 53.9946 89.3335C53.2327 89.6463 52.4132 89.7941 51.5901 89.7674C50.7299 89.7816 49.8761 89.6156 49.0838 89.2802C48.3819 88.9636 47.7434 88.5221 47.1994 87.9772C46.6653 87.4063 46.2173 86.7606 45.8696 86.0605C45.5115 85.3217 45.2205 84.5523 45 83.7615C44.7805 82.9666 44.6185 82.1569 44.5155 81.3387C44.432 80.5042 44.389 79.7019 44.389 78.9374C44.3914 77.711 44.4913 76.4868 44.6878 75.2762C44.8886 74.061 45.2668 72.8819 45.8103 71.7766C46.3298 70.7334 47.0924 69.8305 48.034 69.1438C48.9708 68.4457 50.1553 68.0966 51.5874 68.0966C52.4467 68.0813 53.2995 68.2464 54.091 68.5812C54.8075 68.8778 55.4587 69.3123 56.0077 69.8599C56.5586 70.4012 57.0137 71.032 57.3537 71.7255C57.7345 72.4391 58.0343 73.193 58.2475 73.9733C58.4882 74.7645 58.6594 75.5752 58.759 76.3961C58.8594 77.1845 58.9106 77.9784 58.9124 78.7732C58.9161 79.5863 58.8711 80.399 58.7778 81.2068H58.7697Z" fill="#F0A202"/>
<path d="M95.9385 66.1692L89.4992 66.756L87.7601 67.9486C86.5523 67.3851 85.2707 66.9954 83.9536 66.791C83.2772 66.6903 82.5943 66.639 81.9104 66.6376C80.2748 66.6185 78.6569 66.9778 77.1832 67.6875C75.7884 68.3697 74.5452 69.3254 73.5274 70.498C72.4939 71.676 71.6887 73.0363 71.153 74.5091C70.589 76.0304 70.3027 77.6407 70.3077 79.2632C70.3043 80.9101 70.5904 82.5448 71.153 84.0927C71.7049 85.5992 72.5258 86.993 73.5759 88.2061C74.6217 89.3872 75.8894 90.3512 77.307 91.0435C78.8177 91.7511 80.4684 92.109 82.1365 92.0907C83.7651 92.1145 85.3819 91.8106 86.8906 91.1969C88.3119 90.5952 89.5946 89.7083 90.6594 88.5911C90.611 89.3987 90.5329 90.2843 90.4306 91.2831C90.3283 92.2818 90.1749 93.3021 89.9703 94.3251C89.7684 95.3374 89.5041 96.3362 89.1788 97.3159C88.9015 98.2234 88.506 99.0905 88.0024 99.8949C87.5649 100.604 86.9923 101.221 86.3172 101.709C85.6604 102.173 84.8731 102.415 84.0694 102.401C83.3571 102.425 82.6536 102.238 82.0477 101.863C81.5076 101.495 81.0584 101.009 80.7339 100.441C80.4026 99.8552 80.1698 99.2186 80.0448 98.5569C79.9097 97.8751 79.8412 97.1818 79.8402 96.4868C79.8402 96.0103 79.8563 95.5338 79.8913 95.0546C79.9263 94.5754 80.0125 94.1259 80.0959 93.6494L73.0698 94.1366L70.9161 95.6199L73.3201 95.453C73.4917 96.277 73.7073 97.0912 73.9662 97.892C74.3294 99.0514 74.8815 100.143 75.6003 101.122C76.2883 102.049 77.1691 102.816 78.1819 103.37C79.3429 103.978 80.6407 104.278 81.9507 104.24C83.504 104.267 85.0508 104.034 86.5272 103.551C87.8006 103.146 88.994 102.523 90.0537 101.709C91.061 100.919 91.9244 99.9611 92.6058 98.8773C93.3337 97.7827 93.9343 96.6085 94.396 95.3777C94.8815 94.0824 95.2579 92.7488 95.5212 91.3908C95.7922 89.9945 95.9959 88.5893 96.1323 87.1751C96.2687 85.7608 96.3629 84.3637 96.415 82.9836C96.4473 81.5873 96.4643 80.2583 96.4661 78.9967C96.4661 76.8682 96.4231 74.7388 96.3369 72.6085C96.2508 70.4782 96.118 68.3318 95.9385 66.1692ZM89.6203 68.0321L89.7307 69.2085C89.2506 68.8086 88.7311 68.4586 88.1801 68.164L89.6203 68.0321ZM91.3163 84.1061C91.0944 85.0908 90.6769 86.0209 90.0887 86.8412C89.5074 87.6368 88.7453 88.2827 87.8651 88.7257C86.8312 89.227 85.6917 89.4717 84.5432 89.439C83.2815 89.4724 82.0378 89.1355 80.9655 88.4699C79.9894 87.8156 79.1635 86.9613 78.5426 85.9636C77.8997 84.9115 77.4255 83.7652 77.1374 82.5663C76.8531 81.3775 76.7068 80.1598 76.7013 78.9375C76.7014 77.7346 76.8736 76.538 77.2128 75.384C77.5285 74.264 78.0398 73.2086 78.723 72.2666C79.4028 71.3485 80.2746 70.5896 81.2777 70.043C82.379 69.4683 83.6083 69.183 84.8501 69.2139C84.9631 69.2139 85.0762 69.2139 85.1893 69.2139C85.9672 69.9596 87.4532 71.3675 87.5286 71.3675C87.8894 71.1088 88.2296 70.8226 88.5462 70.5114C88.773 70.6778 88.9897 70.8576 89.195 71.0498C89.7981 71.5832 90.3077 72.2138 90.7025 72.9154C91.0823 73.5699 91.2846 74.3123 91.2894 75.069L91.5963 80.8703C91.6493 81.9566 91.5551 83.0451 91.3163 84.1061Z" fill="#F0A202"/>
<path d="M109.536 57.5924C109.125 57.1812 108.639 56.8523 108.104 56.6232C107.546 56.381 106.943 56.259 106.335 56.2652C105.46 56.2551 104.601 56.5073 103.869 56.9893L103.818 57.0243L103.708 57.1024L101.963 58.3219H102.529C102.379 58.5529 102.25 58.796 102.141 59.0487C101.901 59.6054 101.779 60.2058 101.783 60.812C101.781 61.4102 101.903 62.0024 102.141 62.5511C102.607 63.6285 103.467 64.4873 104.545 64.9524C105.111 65.1924 105.72 65.3143 106.335 65.3104H106.583C106.446 65.7815 106.314 66.2634 106.314 66.2634L108.755 64.6051C108.831 64.5593 108.901 64.5082 108.974 64.457L109.052 64.4059C109.225 64.2777 109.388 64.1374 109.542 63.9859C110.367 63.1366 110.834 62.0018 110.844 60.8174C110.85 60.2111 110.728 59.6104 110.486 59.0541C110.275 58.5062 109.951 58.0083 109.536 57.5924Z" fill="#F0A202"/>
<path d="M137.646 81.7426C137.33 81.0074 136.889 80.3325 136.343 79.7478C135.789 79.1447 135.155 78.6203 134.459 78.1891C133.756 77.7284 133.012 77.3354 132.235 77.0154C131.474 76.676 130.688 76.3935 129.885 76.1701C129.102 75.9332 128.361 75.7376 127.661 75.5833C127.015 75.4289 126.257 75.2755 125.387 75.1229C124.533 74.9563 123.696 74.7177 122.883 74.4095C122.129 74.1135 121.436 73.6799 120.84 73.1308C120.565 72.8459 120.352 72.5079 120.213 72.1375C120.074 71.7672 120.013 71.3723 120.032 70.9772C120.02 70.4346 120.191 69.9037 120.517 69.4697C120.837 69.0471 121.236 68.6913 121.693 68.4225C122.169 68.1337 122.685 67.9186 123.225 67.7845C123.718 67.6545 124.225 67.5858 124.735 67.5799C125.644 67.5591 126.549 67.724 127.392 68.0644C128.12 68.3468 128.767 68.8035 129.277 69.3943C129.802 70.0006 130.186 70.7159 130.402 71.4887C130.666 72.3755 130.787 73.2988 130.76 74.2238V74.4795L135.358 74.1242L135.554 75.4271L137.708 73.9438C137.631 72.5711 137.181 71.2454 136.405 70.1104C135.681 69.0609 134.739 68.1803 133.643 67.5287C132.515 66.849 131.28 66.3649 129.99 66.0966C128.7 65.7943 127.379 65.6398 126.054 65.6362C125.233 65.6416 124.413 65.71 123.602 65.8408C122.724 65.9795 121.861 66.1939 121.02 66.4815C120.16 66.7588 119.33 67.1194 118.541 67.5583C117.776 67.9727 117.072 68.4889 116.446 69.0928C115.852 69.6843 115.368 70.376 115.014 71.136C114.648 71.9384 114.464 72.8117 114.476 73.6935C114.462 74.4712 114.656 75.2385 115.036 75.9171C115.426 76.5624 115.928 77.1331 116.519 77.6023C117.162 78.1146 117.866 78.5442 118.616 78.881C119.399 79.239 120.201 79.5544 121.017 79.8259C121.836 80.0825 122.628 80.3123 123.394 80.5151C124.161 80.7179 124.851 80.8883 125.465 81.0265C126.043 81.1638 126.716 81.3577 127.484 81.6134C128.256 81.8479 129.001 82.1656 129.705 82.561C130.392 82.9122 131.007 83.3888 131.519 83.9662C132.011 84.5223 132.276 85.2429 132.262 85.9852C132.292 86.5511 132.17 87.1145 131.909 87.6176C131.648 88.1206 131.258 88.545 130.779 88.8469C130.325 89.1308 129.823 89.3297 129.298 89.4337C128.744 89.5553 128.178 89.6158 127.61 89.6141C126.714 89.6265 125.822 89.4788 124.977 89.178C124.224 88.9088 123.536 88.4821 122.961 87.9262C122.386 87.3452 121.941 86.6488 121.655 85.883C121.355 85.0112 121.209 84.094 121.222 83.1721V82.8679C121.22 82.7545 121.238 82.6417 121.273 82.5341L114.118 82.3295L111.964 83.8128L114.417 83.8828C114.665 84.8334 115.074 85.7347 115.625 86.5479C116.451 87.7132 117.492 88.71 118.691 89.4849C119.922 90.2614 121.268 90.8392 122.678 91.197C124.111 91.567 125.584 91.756 127.064 91.7596C128.301 91.7505 129.534 91.6134 130.744 91.3505C131.998 91.1111 133.208 90.6807 134.332 90.0744C135.402 89.5085 136.335 88.7145 137.065 87.7485C137.799 86.722 138.177 85.4835 138.141 84.222C138.152 83.3699 137.983 82.5252 137.646 81.7426Z" fill="#F0A202"/>
<path d="M31.5667 53.9126L29.4131 55.3959L31.2517 55.9585C31.1871 56.4108 31.1225 56.8792 31.0552 57.3638C30.8865 58.6075 30.6568 59.9275 30.366 61.3237C30.0785 62.7631 29.7191 64.1872 29.2892 65.5906C28.8321 67.0972 28.242 68.5603 27.5259 69.9624C26.7616 71.4437 25.8555 72.8474 24.8205 74.1539C23.6832 75.5804 22.38 76.8664 20.9386 77.9847C19.709 76.9787 18.5868 75.8483 17.5897 74.6116C16.6185 73.4101 15.7384 72.1377 14.9569 70.805C14.2064 69.526 13.5322 68.2037 12.9379 66.8451C12.3743 65.4991 11.8889 64.2042 11.4815 62.9605C10.5333 60.0686 9.85736 57.0944 9.46247 54.0768L2.15362 55.8562L0 57.3395L2.40129 56.75C2.69472 57.7864 3.0366 58.874 3.43233 60.0208C3.95997 61.5032 4.57285 63.0107 5.27098 64.5434C5.96911 66.0761 6.76147 67.6096 7.64804 69.1441C8.5328 70.6595 9.52228 72.1114 10.6093 73.489C11.6909 74.8585 12.8791 76.1403 14.1627 77.3224C15.4456 78.4885 16.8604 79.5004 18.3784 80.3375L16.5371 91.0706L22.36 91.4179L22.4865 93.0331L24.6401 91.5498L23.7706 80.3321C25.9798 78.7984 27.9665 76.9666 29.6742 74.8888C31.2862 72.9288 32.7145 70.8247 33.941 68.603C35.0777 66.5276 36.0524 64.3676 36.8565 62.1421C37.621 59.9777 38.259 57.9677 38.7705 56.112L31.5667 53.9126Z" fill="#F0A202"/>
<path d="M109.969 67.8919H109.916L109.684 67.8784H109.598H109.566H109.442H109.407H109.251H109.065L108.718 67.8596H108.535H108.413H108.295L107.985 67.8434H107.827L107.304 67.8165L106.712 67.7842L106.443 67.7707H106.262H106.063H105.891H105.818L105.493 67.7546H105.307L104.954 67.7357H104.844H104.75L104.303 67.7115H104.163H104.004L103.64 67.6927H103.592H103.474L103.204 67.6792H103.04H102.811H102.798L100.644 69.1625L102.817 69.2783L103.105 91.964L105.88 92.252V93.9587C105.88 93.9587 108.36 92.5077 108.034 92.4754H107.993H108.034L109.961 68.0669C110.064 67.9646 110.088 67.8973 109.969 67.8919ZM107.851 92.4566H107.913H107.851ZM107.396 92.4108H107.485H107.396Z" fill="#F0A202"/>
<path d="M36.6115 57.5951C36.1001 59.4508 35.4611 61.4609 34.6948 63.6253C33.8917 65.8507 32.9179 68.0107 31.782 70.0861C30.5546 72.3073 29.1263 74.4113 27.5152 76.372C25.8075 78.4498 23.8208 80.2815 21.6116 81.8153L22.4811 93.0329L14.3781 92.5484L16.2194 81.8153C14.7014 80.9781 13.2866 79.9662 12.0037 78.8002C10.7201 77.618 9.53189 76.3362 8.45026 74.9668C7.36328 73.5891 6.3738 72.1373 5.48904 70.6218C4.60426 69.0874 3.81191 67.5538 3.11198 66.0212C2.41205 64.4885 1.79917 62.981 1.27333 61.4986C0.765432 60.0198 0.34099 58.6334 0 57.3394L7.30885 55.5492C7.70145 58.5672 8.37744 61.5416 9.32787 64.4329C9.73705 65.6766 10.2225 66.9715 10.7843 68.3175C11.3786 69.6761 12.0528 70.9984 12.8033 72.2774C13.5848 73.6101 14.4649 74.8825 15.4361 76.084C16.4322 77.3207 17.5536 78.451 18.7823 79.4571C20.224 78.3412 21.528 77.058 22.6668 75.6344C23.7034 74.3293 24.6104 72.9264 25.375 71.4456C26.09 70.0429 26.68 68.58 27.1383 67.0738C27.5682 65.6703 27.9276 64.2463 28.2151 62.8069C28.5058 61.4088 28.7356 60.0888 28.9043 58.8469C29.073 57.605 29.2435 56.4546 29.4158 55.3958L36.6115 57.5951Z" fill="#791E94"/>
<path d="M62.1696 75.1498C61.5193 73.5609 60.5447 72.1251 59.308 70.9341C58.0715 69.7412 56.6063 68.8108 55.0008 68.199C53.2624 67.5399 51.4165 67.2104 49.5575 67.2272C47.7743 67.2227 46.0086 67.5799 44.3673 68.2771C42.7402 68.9423 41.2506 69.9035 39.9739 71.1118C38.7092 72.3086 37.6777 73.7298 36.9319 75.3032C36.1783 76.9196 35.793 78.6832 35.804 80.4665C35.7865 82.2403 36.1081 84.0011 36.7516 85.6541C37.3729 87.1792 38.2876 88.5676 39.4436 89.7406C40.6059 90.8995 41.9879 91.8148 43.5085 92.4326C45.1573 93.0933 46.9199 93.4235 48.6961 93.4044C50.5534 93.4091 52.3994 93.1156 54.1636 92.5349C55.8488 92.0101 57.4185 91.1686 58.7885 90.0555C60.1371 88.9515 61.2379 87.5756 62.0189 86.0175C62.8514 84.3071 63.2622 82.4221 63.2168 80.5204C63.2401 78.6773 62.8836 76.8491 62.1696 75.1498ZM56.6241 82.6875C56.5216 83.5244 56.3597 84.3529 56.1395 85.1668C55.9172 85.9695 55.617 86.7485 55.2431 87.4927C54.8826 88.2054 54.4181 88.8605 53.8647 89.4364C53.2971 90.0335 52.6095 90.5038 51.8473 90.8165C51.085 91.1292 50.2652 91.2772 49.4418 91.2508C48.5823 91.2652 47.7294 91.0992 46.9382 90.7635C46.2355 90.4483 45.5968 90.0067 45.0538 89.4606C44.5197 88.8897 44.0717 88.244 43.7239 87.5439C43.3646 86.8056 43.0736 86.0361 42.8544 85.2449C42.6348 84.45 42.4729 83.6403 42.3698 82.8221C42.2864 81.9875 42.2433 81.1853 42.2433 80.4208C42.2426 79.1919 42.3398 77.965 42.534 76.7516C42.737 75.5365 43.1161 74.3576 43.6593 73.2519C44.1787 72.2088 44.9414 71.3058 45.8829 70.6191C46.8197 69.9192 48.0033 69.5701 49.4337 69.5719C50.2938 69.5563 51.1476 69.7214 51.94 70.0565C52.6564 70.3531 53.3076 70.7876 53.8567 71.3352C54.4075 71.8766 54.8626 72.5073 55.2027 73.2008C55.5835 73.9144 55.8833 74.6684 56.0964 75.4486C56.3372 76.2398 56.5083 77.0505 56.6079 77.8714C56.7083 78.6598 56.7596 79.4537 56.7614 80.2485C56.7644 81.0635 56.7186 81.878 56.6241 82.6875Z" fill="#791E94"/>
<path d="M94.1939 74.0917C94.1096 71.9614 93.9732 69.814 93.7848 67.6497L87.3454 68.2392L87.577 70.6916C87.0419 70.2449 86.4586 69.8594 85.8379 69.5422C84.5642 68.9144 83.2027 68.4833 81.7999 68.2634C81.1234 68.1627 80.4405 68.1114 79.7566 68.11C78.121 68.0909 76.5032 68.4502 75.0294 69.1599C73.6347 69.8421 72.3914 70.7978 71.3737 71.9704C70.3401 73.1484 69.5349 74.5087 68.9993 75.9815C68.4353 77.5028 68.1489 79.1131 68.154 80.7356C68.1506 82.3825 68.4367 84.0172 68.9993 85.5651C69.55 87.0722 70.371 88.4661 71.4221 89.6785C72.468 90.8596 73.7357 91.8236 75.1533 92.5159C76.6639 93.2237 78.3146 93.5817 79.9827 93.5631C81.6113 93.5869 83.2281 93.283 84.7369 92.6693C86.1578 92.067 87.4404 91.1802 88.5057 90.0635C88.4572 90.8711 88.3792 91.7567 88.2769 92.7555C88.1746 93.7542 88.0211 94.7745 87.8165 95.7975C87.6146 96.8098 87.3503 97.8086 87.0251 98.7883C86.7466 99.6954 86.3511 100.562 85.8487 101.367C85.4112 102.077 84.8386 102.693 84.1635 103.182C83.5058 103.646 82.7176 103.888 81.9129 103.874C81.2015 103.897 80.4991 103.71 79.8939 103.335C79.3601 102.97 78.9148 102.49 78.591 101.93C78.2597 101.344 78.0269 100.707 77.9018 100.045C77.7667 99.3637 77.6982 98.6704 77.6972 97.9753C77.6972 97.4988 77.7134 97.0196 77.7484 96.5431C77.7834 96.0667 77.8668 95.6144 77.953 95.1379L70.9241 95.6252C71.1212 96.8928 71.4173 98.143 71.8098 99.3644C72.1729 100.524 72.7251 101.615 73.4438 102.595C74.1312 103.522 75.0121 104.289 76.0255 104.843C77.1863 105.451 78.4842 105.751 79.7943 105.712C81.3475 105.739 82.8943 105.506 84.3708 105.023C85.6442 104.619 86.8375 103.995 87.8973 103.182C88.904 102.394 89.7681 101.44 90.452 100.36C91.1795 99.2655 91.78 98.0914 92.2422 96.8608C92.7278 95.5655 93.1042 94.2319 93.3675 92.8739C93.6385 91.4777 93.8422 90.0724 93.9786 88.6582C94.115 87.244 94.2092 85.8468 94.2612 84.4667C94.2935 83.0687 94.3106 81.7397 94.3124 80.4798C94.3196 78.3531 94.2801 76.2238 94.1939 74.0917ZM89.1599 85.5893C88.9402 86.5751 88.5236 87.5064 87.935 88.3271C87.353 89.122 86.591 89.7678 85.7114 90.2115C84.6775 90.7129 83.538 90.9576 82.3894 90.9249C81.1278 90.9582 79.884 90.6213 78.8117 89.9558C77.8356 89.3015 77.0098 88.4472 76.3889 87.4495C75.7459 86.3974 75.2718 85.251 74.9837 84.0522C74.6994 82.8633 74.5531 81.6457 74.5476 80.4233C74.5476 79.2205 74.7199 78.0239 75.059 76.8698C75.375 75.7504 75.8853 74.6952 76.5666 73.7525C77.2463 72.8343 78.1181 72.0754 79.1213 71.5289C80.223 70.9489 81.4543 70.659 82.699 70.6863C83.485 70.6934 84.2604 70.8677 84.9738 71.1977C86.4792 71.85 87.7339 72.9707 88.5515 74.3932C88.9333 75.047 89.1366 75.7897 89.141 76.5468L89.4479 82.3481C89.5 83.4366 89.4031 84.5271 89.1599 85.5893Z" fill="#791E94"/>
<path d="M108.685 62.2953C108.675 63.4797 108.208 64.6144 107.383 65.4638C106.97 65.8748 106.485 66.2045 105.95 66.4356C105.392 66.677 104.79 66.798 104.182 66.791C103.568 66.7948 102.959 66.6729 102.394 66.4329C101.316 65.9679 100.456 65.109 99.9902 64.0316C99.7518 63.483 99.6299 62.8908 99.6322 62.2926C99.6283 61.6864 99.7502 61.086 99.9902 60.5293C100.217 59.9856 100.547 59.491 100.962 59.0729C101.374 58.6619 101.86 58.3322 102.394 58.1011C102.96 57.8632 103.568 57.7424 104.182 57.7458C104.788 57.7407 105.388 57.8617 105.945 58.1011C106.479 58.3322 106.965 58.6619 107.377 59.0729C107.788 59.4887 108.11 59.9844 108.322 60.5293C108.564 61.0864 108.688 61.6878 108.685 62.2953Z" fill="#791E94"/>
<path d="M107.815 69.3752L105.872 93.9588L100.94 93.4473L100.633 68.9902L107.815 69.3752Z" fill="#791E94"/>
<path d="M124.91 93.2428C123.428 93.2401 121.951 93.0511 120.516 92.6802C119.106 92.3224 117.76 91.7446 116.529 90.968C115.329 90.193 114.288 89.1951 113.463 88.0283C112.62 86.7692 112.102 85.3208 111.956 83.8126L119.111 84.0172C119.076 84.124 119.059 84.2359 119.06 84.3483V84.6552C119.047 85.5771 119.193 86.4943 119.493 87.3661C119.778 88.1317 120.222 88.8282 120.796 89.4093C121.373 89.9649 122.061 90.3916 122.815 90.6611C123.66 90.9623 124.552 91.11 125.448 91.0972C126.015 91.0977 126.58 91.0372 127.133 90.9169C127.659 90.8128 128.162 90.6139 128.617 90.33C129.058 90.0431 129.426 89.6579 129.693 89.2048C129.983 88.6732 130.125 88.0734 130.103 87.4684C130.117 86.726 129.852 86.0054 129.36 85.4494C128.848 84.872 128.232 84.3954 127.545 84.0441C126.841 83.6483 126.095 83.3305 125.322 83.0966C124.554 82.8408 123.884 82.647 123.303 82.5097C122.721 82.3724 122.019 82.1866 121.232 81.9982C120.446 81.8098 119.676 81.5648 118.858 81.309C118.041 81.0371 117.238 80.7217 116.454 80.3641C115.705 80.0274 115.002 79.5977 114.36 79.0854C113.768 78.616 113.266 78.0443 112.876 77.3975C112.495 76.7205 112.301 75.9536 112.316 75.1766C112.305 74.2949 112.489 73.4215 112.855 72.6192C113.208 71.8592 113.693 71.1675 114.287 70.5759C114.911 69.9706 115.616 69.4543 116.381 69.0415C117.171 68.6021 118.001 68.2414 118.861 67.9647C119.7 67.6773 120.563 67.463 121.44 67.324C122.252 67.1932 123.072 67.1248 123.895 67.1194C125.219 67.1295 126.538 67.2903 127.825 67.5986C129.115 67.8668 130.35 68.351 131.478 69.0307C132.574 69.6831 133.516 70.5636 134.24 71.6124C135.016 72.7472 135.466 74.0731 135.541 75.4458L128.592 75.9842V75.7285C128.62 74.8 128.499 73.8731 128.234 72.9826C128.019 72.2096 127.635 71.4941 127.109 70.8882C126.599 70.298 125.952 69.8414 125.225 69.5584C124.38 69.2176 123.475 69.0527 122.565 69.0738C122.056 69.0799 121.55 69.1486 121.057 69.2784C120.518 69.4125 120.001 69.6276 119.526 69.9164C119.069 70.1852 118.669 70.541 118.349 70.9636C118.023 71.3973 117.851 71.9282 117.862 72.4711C117.844 72.8661 117.906 73.2607 118.044 73.6309C118.183 74.0012 118.396 74.3393 118.67 74.6248C119.266 75.1739 119.96 75.6067 120.716 75.9008C121.528 76.2117 122.365 76.4513 123.219 76.6168C124.089 76.7703 124.834 76.9237 125.494 77.0772C126.191 77.2306 126.934 77.4271 127.718 77.664C128.521 77.8878 129.306 78.1704 130.068 78.5093C130.845 78.8282 131.59 79.2213 132.291 79.6831C132.988 80.1133 133.622 80.6378 134.176 81.2417C134.724 81.8256 135.166 82.5007 135.481 83.2365C135.815 84.02 135.98 84.8646 135.966 85.7159C136.001 86.9774 135.623 88.2159 134.889 89.2424C134.165 90.2028 133.24 90.993 132.178 91.5576C131.059 92.1651 129.854 92.5964 128.603 92.8363C127.389 93.0992 126.152 93.2354 124.91 93.2428Z" fill="#791E94"/>
<path d="M23.7867 40.7024C22.7715 41.0858 21.7341 41.4077 20.6801 41.6661C19.5531 41.9389 18.3614 42.1812 17.1051 42.3929C15.8488 42.6047 14.6276 42.7761 13.4413 42.9071C12.2424 43.0363 11.1145 43.144 10.0574 43.2302C9.00213 43.3002 8.1003 43.3513 7.36538 43.3782V42.4145C7.34923 40.146 7.3914 37.8255 7.4919 35.4529C7.59241 33.0803 7.7288 30.7033 7.90109 28.3217C8.07159 25.924 8.26362 23.5542 8.47718 21.2121C8.69075 18.87 8.91598 16.5782 9.15288 14.3367L2.19669 15.2573L0 16.7703L2.21554 16.4768L2.6678 45.6503L23.5902 45.5722L23.5175 47.0771L25.7142 45.5642L26.0157 39.4586L25.2081 40.0159C24.752 40.2796 24.2769 40.5091 23.7867 40.7024Z" fill="#F0A202"/>
<path d="M34.9017 17.5482C34.5569 17.2058 34.1504 16.9318 33.7037 16.7406C33.2377 16.5374 32.7342 16.4347 32.2258 16.4391C31.7106 16.4361 31.2003 16.5387 30.7264 16.7406C30.5395 16.8253 30.3595 16.9243 30.188 17.0367H30.1503L27.9966 18.5416L28.8231 18.5658C28.7908 18.6331 28.7558 18.6977 28.7262 18.7704C28.5289 19.2344 28.4273 19.7334 28.4273 20.2375C28.4273 20.7417 28.5289 21.2407 28.7262 21.7047C29.1152 22.6081 29.8359 23.3278 30.7398 23.7156C31.1437 23.8877 31.5747 23.987 32.0131 24.0091L32.3981 24.6848L34.2583 23.4276C34.4957 23.2781 34.716 23.1029 34.9151 22.9053C35.2583 22.564 35.5285 22.1564 35.7093 21.7074C35.9065 21.2434 36.0082 20.7444 36.0082 20.2402C36.0082 19.7361 35.9065 19.2371 35.7093 18.7731C35.5292 18.3125 35.254 17.8952 34.9017 17.5482Z" fill="#F0A202"/>
<path d="M45.3333 15.193C45.0244 14.7516 44.6218 14.3839 44.1542 14.1162C43.6636 13.8344 43.1046 13.6937 42.539 13.7097C42.0766 13.7056 41.6183 13.7973 41.193 13.9789C40.9453 14.0819 40.7111 14.2148 40.4958 14.3747L38.431 15.8095L39.3355 15.858C39.156 16.2726 39.0643 16.7199 39.0663 17.1717C39.0626 17.5947 39.1346 18.015 39.279 18.4127C39.4304 18.7863 39.6403 19.1334 39.9008 19.441C40.1723 19.7406 40.4905 19.9942 40.843 20.1921C41.2032 20.3918 41.5946 20.5292 42.0006 20.5986V20.7682C42.0015 21.3063 41.8693 21.8362 41.6156 22.3107C41.3586 22.7799 41.0498 23.2187 40.695 23.6191L41.8687 24.2598L41.2764 25.5762L42.5363 24.6259C43.116 24.342 43.6503 23.9737 44.1219 23.5329C44.5876 23.0954 44.9842 22.5899 45.2983 22.0335C45.9566 20.9168 46.3042 19.6443 46.3051 18.3481C46.3055 17.7819 46.2192 17.2191 46.0494 16.679C45.9022 16.1446 45.6596 15.6412 45.3333 15.193Z" fill="#F0A202"/>
<path d="M29.249 25.8586L27.0739 27.3716L29.2679 27.49L29.5048 46.3557L33.1336 46.7326L31.5803 46.5711L31.443 48.2967L33.6397 46.7837L35.2684 26.179L29.249 25.8586Z" fill="#F0A202"/>
<path d="M50.3031 11.7875L48.1064 13.3004L50.3435 13.0905L51.353 45.9493L53.2859 45.7878L53.2455 47.1203L55.4422 45.6074L56.4921 11.2087L50.3031 11.7875Z" fill="#F0A202"/>
<path d="M21.9963 100.595L23.7757 103.849C23.8011 103.898 23.8405 103.937 23.8888 103.963L27.1435 105.742C27.1884 105.767 27.2259 105.803 27.252 105.847C27.2781 105.891 27.2919 105.941 27.2919 105.992C27.2919 106.044 27.2781 106.094 27.252 106.138C27.2259 106.182 27.1884 106.218 27.1435 106.243L23.8888 108.025C23.8405 108.05 23.8011 108.09 23.7757 108.138L21.9963 111.393C21.9717 111.437 21.9355 111.475 21.8915 111.501C21.8474 111.527 21.7972 111.541 21.746 111.541C21.6947 111.541 21.6445 111.527 21.6004 111.501C21.5564 111.475 21.5202 111.437 21.4956 111.393L19.7162 108.138C19.69 108.09 19.6508 108.051 19.6031 108.025L16.3484 106.243C16.3035 106.218 16.266 106.182 16.2399 106.138C16.2138 106.094 16.2 106.044 16.2 105.992C16.2 105.941 16.2138 105.891 16.2399 105.847C16.266 105.803 16.3035 105.767 16.3484 105.742L19.6516 103.941C19.6632 103.934 19.6733 103.925 19.6812 103.914L21.4902 100.603C21.5136 100.556 21.5493 100.517 21.5935 100.489C21.6377 100.461 21.6886 100.446 21.7408 100.445C21.793 100.445 21.8444 100.458 21.8895 100.484C21.9345 100.511 21.9715 100.549 21.9963 100.595Z" fill="#F0A202"/>
<path d="M158.698 53.8694L160.477 57.1241C160.503 57.1718 160.543 57.211 160.59 57.2371L163.848 59.0193C163.892 59.044 163.929 59.0802 163.955 59.1239C163.98 59.1677 163.994 59.2175 163.994 59.2683C163.994 59.319 163.98 59.3688 163.955 59.4126C163.929 59.4564 163.892 59.4925 163.848 59.5173L160.59 61.2994C160.543 61.3255 160.503 61.3648 160.477 61.4125L158.698 64.6671C158.673 64.712 158.637 64.7495 158.593 64.7757C158.549 64.8018 158.499 64.8155 158.448 64.8155C158.396 64.8155 158.346 64.8018 158.302 64.7757C158.258 64.7495 158.222 64.712 158.197 64.6671L156.407 61.4232C156.382 61.375 156.342 61.3355 156.294 61.3102L153.05 59.5227C153.001 59.5024 152.958 59.4679 152.929 59.4235C152.899 59.3792 152.883 59.327 152.883 59.2736C152.883 59.2203 152.899 59.1681 152.929 59.1238C152.958 59.0794 153.001 59.0449 153.05 59.0246L156.359 57.2129C156.371 57.2069 156.381 57.1976 156.388 57.186L158.197 53.8748C158.221 53.8296 158.257 53.7917 158.301 53.7651C158.345 53.7385 158.395 53.7242 158.446 53.7236C158.497 53.7231 158.548 53.7363 158.592 53.762C158.636 53.7876 158.673 53.8247 158.698 53.8694Z" fill="#F0A202"/>
<path d="M71.9305 16.6763C71.9305 16.6763 67.5209 32.0639 68.3178 37.1787C68.3178 37.1787 59.7275 26.7498 71.9305 16.6763Z" fill="#2D1C1F"/>
<path d="M83.0465 54.6497C83.0465 54.6497 60.5627 46.4013 66.2752 71.7925C66.2752 71.7925 67.9711 63.7164 75.14 62.5804C83.3937 61.2613 83.0465 57.7994 83.0465 57.7994L85.7385 56.0657L83.0465 54.6497Z" fill="#372124"/>
<path d="M62.8131 16.0247C62.8131 16.0247 57.2164 31.2561 63.6773 40.4898C67.9845 46.6437 71.9876 48.1782 71.9876 48.1782C71.9876 48.1782 69.9255 39.6176 70.3723 36.7802C70.8192 33.9428 64.0703 17.0099 62.8131 16.0247Z" fill="#372124"/>
<path d="M110.747 28.9303C110.294 23.724 107.387 21.3334 106.24 17.9738C105.093 14.6141 101.556 2.77463 92.9848 0.65331C84.4133 -1.468 78.3159 2.06662 75.3116 4.27677C75.3116 4.27677 76.1192 10.4684 79.7292 12.937C79.7292 12.937 79.1908 9.49122 79.8181 8.87206C80.4453 8.25289 91.663 11.2572 96.9609 18.8568C102.259 26.4564 94.1342 39.0927 94.1342 39.0927C94.2274 40.0962 94.3756 41.0937 94.5784 42.0809C90.605 44.1026 91.3103 47.7557 90.142 52.0198C88.9279 56.4617 87.7595 57.6569 87.7595 57.6569C87.7595 57.6569 97.7739 57.5412 101.448 55.1022C105.123 52.6632 109.142 48.5929 109.333 43.9518C109.6 37.4479 111.199 34.1394 110.747 28.9303Z" fill="#372124"/>
<path d="M91.7983 50.3426C91.7983 50.3426 82.6292 47.6506 82.1958 54.588C82.1958 54.588 83.5418 56.712 82.1958 57.7376C80.8498 58.7633 87.2703 59.9908 89.4158 55.9797C90.525 53.888 91.7983 50.3426 91.7983 50.3426Z" fill="#372124"/>
<path d="M84.7989 8.60562C84.7989 8.60562 67.368 8.16413 67.368 19.3872C67.368 19.3872 67.4865 30.4245 68.0249 33.2484C68.1783 34.056 68.6656 37.5395 72.4048 40.2854C74.0312 41.4781 75.7889 42.4807 77.6435 43.2735C79.4768 43.9405 81.3699 44.43 83.2968 44.7353C84.2639 44.8941 85.2505 44.8941 86.2176 44.7353C87.8167 44.4661 90.3983 43.9977 91.9866 43.3704C93.8632 42.608 95.6145 41.568 97.1822 40.2854C98.6359 39.0309 99.7908 36.888 100.518 34.8502C101.056 33.3453 102.06 21.3254 102.203 19.5945C102.203 19.4572 102.219 19.3253 102.216 19.1799C102.004 8.16951 84.7989 8.60562 84.7989 8.60562Z" fill="#EFC3A3"/>
<path d="M91.2597 20.9512V20.4128H91.222C91.2624 20.4128 91.4105 20.3347 91.5397 20.2755C92.2315 19.9632 93.6637 19.3118 94.9774 19.4679C96.6141 19.6752 97.2387 19.9309 97.2656 19.9417L97.0529 20.4532C96.3531 20.2299 95.6309 20.0837 94.8993 20.0171C93.7444 19.8717 92.4038 20.4801 91.7631 20.7708C91.6084 20.8626 91.4375 20.9239 91.2597 20.9512Z" fill="#524A4C"/>
<path d="M71.2394 20.9055L70.9325 20.4452C70.9567 20.429 71.5193 20.0575 73.0861 19.5407C74.3406 19.1261 75.875 19.4895 76.6126 19.6645C76.7244 19.6953 76.8376 19.7204 76.9518 19.7399C76.9518 19.7399 76.9357 19.7399 76.9115 19.7399L77.0191 20.2783C76.836 20.2843 76.6534 20.256 76.4807 20.1948C75.7943 20.0333 74.3648 19.6914 73.2503 20.0575C72.5511 20.2662 71.8768 20.5506 71.2394 20.9055Z" fill="#524A4C"/>
<path d="M83.2262 33.531C83.3319 33.6868 83.4707 33.8173 83.6327 33.9133C83.7533 33.9737 83.8896 33.9953 84.023 33.9752C84.1936 33.9591 84.3628 33.9303 84.5291 33.889C84.7326 33.8403 84.9396 33.8079 85.1483 33.7921C85.0439 33.9893 84.8933 34.1583 84.7095 34.2848C84.5192 34.4252 84.2937 34.51 84.058 34.5297C83.9213 34.5436 83.7834 34.5233 83.6565 34.4707C83.5297 34.4181 83.4178 34.3348 83.3311 34.2282C83.2561 34.1304 83.2072 34.0151 83.1888 33.8931C83.1705 33.7712 83.1833 33.6466 83.2262 33.531Z" fill="#524A4C"/>
<path d="M84.1873 37.3429C84.719 37.5975 85.3239 37.6548 85.894 37.5044C86.1717 37.4249 86.4419 37.3214 86.7016 37.1948C86.8362 37.1249 86.9708 37.0602 87.1189 36.9903C87.2628 36.9118 87.4111 36.8416 87.563 36.7803C87.4844 36.9279 87.3944 37.0692 87.2938 37.2029C87.1839 37.3295 87.0661 37.4491 86.9412 37.561C86.676 37.786 86.3644 37.9497 86.0286 38.0401C85.6783 38.1341 85.308 38.121 84.9652 38.0025C84.6317 37.8892 84.3536 37.6535 84.1873 37.3429Z" fill="#524A4C"/>
<path d="M75.3123 4.27661C75.3123 4.27661 72.3107 10.1991 76.4618 14.8805C79.3638 18.154 89.3619 19.7261 89.3619 19.7261C89.3619 19.7261 86.6699 18.3801 86.4465 17.6937C86.1988 16.9184 90.0915 15.9788 94.929 19.7261C99.7666 23.4734 101.037 31.6572 101.037 31.6572C101.037 31.6572 107.124 21.4948 102.219 12.3931C97.3142 3.29133 82.823 6.92826 75.3123 4.27661Z" fill="#372124"/>
<path d="M66.8297 33.792C66.8297 33.792 64.1781 29.9908 67.3681 26.1924C70.5582 22.3939 73.1102 20.5391 73.6405 17.9736C74.1708 15.4081 74.7012 13.6206 75.3203 12.9261C75.3203 12.9261 74.4374 6.13142 75.3203 4.27661C75.3123 4.27661 53.5715 7.90008 66.8297 33.792Z" fill="#372124"/>
<path d="M76.0442 31.6844C78.1227 31.6844 79.8077 29.9994 79.8077 27.9209C79.8077 25.8424 78.1227 24.1575 76.0442 24.1575C73.9657 24.1575 72.2808 25.8424 72.2808 27.9209C72.2808 29.9994 73.9657 31.6844 76.0442 31.6844Z" fill="#FDF4F1"/>
<path d="M76.0447 31.8242C75.2729 31.8231 74.5188 31.5933 73.8776 31.1637C73.2363 30.7342 72.7369 30.1242 72.4423 29.4108C72.1476 28.6975 72.0711 27.9128 72.2223 27.156C72.3736 26.3991 72.7457 25.7041 73.2919 25.1587C73.838 24.6134 74.5335 24.2421 75.2906 24.0919C76.0476 23.9418 76.8322 24.0194 77.5451 24.315C78.2581 24.6106 78.8674 25.1109 79.2961 25.7527C79.7247 26.3945 79.9535 27.149 79.9535 27.9208C79.9532 28.4337 79.8518 28.9416 79.6552 29.4154C79.4585 29.8892 79.1705 30.3196 78.8076 30.682C78.4446 31.0445 78.0138 31.3319 77.5397 31.5279C77.0657 31.7239 76.5577 31.8246 76.0447 31.8242ZM76.0447 24.2865C75.3285 24.2892 74.629 24.5039 74.0347 24.9036C73.4403 25.3033 72.9776 25.8701 72.705 26.5325C72.4323 27.1948 72.362 27.9231 72.5028 28.6254C72.6435 29.3277 72.9892 29.9725 73.496 30.4786C74.0029 30.9847 74.6482 31.3294 75.3507 31.4691C76.0533 31.6089 76.7814 31.5374 77.4434 31.2638C78.1053 30.9902 78.6714 30.5267 79.0702 29.9317C79.469 29.3368 79.6827 28.637 79.6843 27.9208C79.6836 27.4436 79.5889 26.9713 79.4056 26.5308C79.2223 26.0903 78.9539 25.6903 78.6159 25.3535C78.2779 25.0167 77.8769 24.7499 77.4357 24.5682C76.9945 24.3865 76.5218 24.2936 76.0447 24.2946V24.2865Z" fill="black"/>
<path d="M76.5178 30.6345C78.1369 30.6345 79.4494 29.1846 79.4494 27.396C79.4494 25.6074 78.1369 24.1575 76.5178 24.1575C74.8987 24.1575 73.5862 25.6074 73.5862 27.396C73.5862 29.1846 74.8987 30.6345 76.5178 30.6345Z" fill="#211517"/>
<path d="M72.5016 26.6423C72.2592 26.8762 71.9878 27.0779 71.694 27.2427C71.2256 27.4526 72.3589 27.1754 72.3589 27.1754L72.5016 26.6423Z" fill="#211517"/>
<path d="M72.2866 27.6274C72.116 27.9223 71.9079 28.1937 71.6675 28.435C71.2744 28.7635 72.2866 28.1901 72.2866 28.1901V27.6274Z" fill="#211517"/>
<path d="M72.8975 25.7563C72.7467 25.7967 72.4129 26.1628 71.8206 26.3297C71.2284 26.4967 72.6283 26.3701 72.6283 26.3701L72.8975 25.7563Z" fill="#211517"/>
<path d="M93.5376 31.3909C95.6161 31.3909 97.301 29.706 97.301 27.6275C97.301 25.549 95.6161 23.864 93.5376 23.864C91.4591 23.864 89.7741 25.549 89.7741 27.6275C89.7741 29.706 91.4591 31.3909 93.5376 31.3909Z" fill="#FDF4F1"/>
<path d="M93.5373 31.5256C92.7655 31.5235 92.0117 31.2926 91.3711 30.8622C90.7305 30.4317 90.2318 29.821 89.9382 29.1073C89.6446 28.3935 89.5691 27.6087 89.7214 26.8521C89.8736 26.0955 90.2468 25.401 90.7937 24.8563C91.3405 24.3117 92.0366 23.9415 92.7938 23.7923C93.5511 23.6432 94.3355 23.7219 95.0481 24.0185C95.7606 24.315 96.3692 24.8162 96.797 25.4586C97.2248 26.101 97.4526 26.8558 97.4515 27.6276C97.4505 28.1405 97.3484 28.6482 97.1511 29.1218C96.9538 29.5953 96.6652 30.0253 96.3017 30.3872C95.9383 30.7492 95.5071 31.036 95.0327 31.2314C94.5584 31.4267 94.0503 31.5267 93.5373 31.5256ZM93.5373 23.9879C92.8201 23.9879 92.1191 24.2006 91.5227 24.5991C90.9264 24.9975 90.4616 25.5638 90.1872 26.2264C89.9127 26.889 89.8409 27.6181 89.9808 28.3215C90.1208 29.0249 90.4661 29.6711 90.9732 30.1782C91.4804 30.6853 92.1265 31.0307 92.8299 31.1706C93.5333 31.3105 94.2624 31.2387 94.925 30.9642C95.5876 30.6898 96.1539 30.225 96.5524 29.6287C96.9508 29.0324 97.1635 28.3313 97.1635 27.6141C97.1592 26.6549 96.7754 25.7365 96.0959 25.0595C95.4164 24.3825 94.4965 24.0021 93.5373 24.0014V23.9879Z" fill="black"/>
<path d="M93.0605 30.3381C94.6795 30.3381 95.9921 28.8882 95.9921 27.0996C95.9921 25.311 94.6795 23.8611 93.0605 23.8611C91.4414 23.8611 90.1288 25.311 90.1288 27.0996C90.1288 28.8882 91.4414 30.3381 93.0605 30.3381Z" fill="#211517"/>
<path d="M97.077 26.3459C97.3194 26.5798 97.5909 26.7815 97.8846 26.9463C98.353 27.1562 97.2224 26.879 97.2224 26.879L97.077 26.3459Z" fill="#211517"/>
<path d="M97.2921 27.3313C97.4627 27.6261 97.6709 27.8976 97.9113 28.1389C98.307 28.47 97.2921 27.8939 97.2921 27.8939V27.3313Z" fill="#211517"/>
<path d="M96.6813 25.4602C96.8321 25.5006 97.1659 25.8694 97.7581 26.0336C98.3504 26.1978 96.9505 26.0767 96.9505 26.0767L96.6813 25.4602Z" fill="#211517"/>
<path d="M73.0024 37.8436C74.2721 37.8436 75.3014 36.8143 75.3014 35.5446C75.3014 34.2749 74.2721 33.2456 73.0024 33.2456C71.7327 33.2456 70.7034 34.2749 70.7034 35.5446C70.7034 36.8143 71.7327 37.8436 73.0024 37.8436Z" fill="#F2B58C"/>
<path d="M96.9104 37.8436C98.1801 37.8436 99.2094 36.8143 99.2094 35.5446C99.2094 34.2749 98.1801 33.2456 96.9104 33.2456C95.6407 33.2456 94.6114 34.2749 94.6114 35.5446C94.6114 36.8143 95.6407 37.8436 96.9104 37.8436Z" fill="#F2B58C"/>
<path d="M136.294 16.5496C136.294 16.5496 117.119 15.3732 116.672 27.7269C116.672 27.7269 116.718 41.187 117.932 44.824C119.146 48.4609 119.797 49.0854 121.386 50.9403C122.974 52.7951 125.892 54.3187 127.281 54.9244C130.924 56.5827 135.169 56.8789 135.169 56.8789C135.169 56.8789 139.745 57.0027 142.467 56.0416C145.35 55.0779 147.143 54.0953 149.272 52.1436C151.402 50.1919 151.695 48.2886 152.567 46.0758C153.27 44.3125 155.06 29.116 155.06 29.116C155.504 16.7569 136.294 16.5496 136.294 16.5496Z" fill="#EFC3A3"/>
<path d="M132.986 45.7771C133.02 45.982 133.099 46.1768 133.217 46.3478C133.321 46.475 133.466 46.5625 133.626 46.5955C133.816 46.6439 134.01 46.6736 134.205 46.6843C134.432 46.6983 134.657 46.7253 134.881 46.7651C134.689 46.9077 134.47 47.0102 134.237 47.0666C133.992 47.1285 133.735 47.1285 133.489 47.0666C133.423 47.0466 133.36 47.0214 133.298 46.9912C133.236 46.9567 133.177 46.9181 133.12 46.8754C133.009 46.7804 132.925 46.6579 132.875 46.5201C132.833 46.3964 132.822 46.2645 132.841 46.1353C132.86 46.0061 132.91 45.8833 132.986 45.7771Z" fill="#524A4C"/>
<path d="M134.491 50.3051C134.756 50.5614 135.081 50.7466 135.436 50.8435C135.748 50.9143 136.075 50.8937 136.376 50.7842C136.704 50.6578 137.014 50.4866 137.296 50.2754C137.447 50.1543 137.601 50.0385 137.757 49.9201C137.908 49.7842 138.068 49.6583 138.236 49.5432C138.136 49.7739 138.025 49.9994 137.902 50.2189C137.775 50.4152 137.639 50.6048 137.493 50.7869C137.224 51.1174 136.874 51.3732 136.478 51.5299C136.291 51.5963 136.092 51.6206 135.895 51.6011C135.697 51.5815 135.507 51.5186 135.337 51.4169C134.931 51.1593 134.631 50.7649 134.491 50.3051Z" fill="#524A4C"/>
<path d="M123.666 50.4582C125.065 50.4582 126.199 49.3241 126.199 47.925C126.199 46.526 125.065 45.3918 123.666 45.3918C122.267 45.3918 121.133 46.526 121.133 47.925C121.133 49.3241 122.267 50.4582 123.666 50.4582Z" fill="#F2B58C"/>
<path d="M144.569 49.6455C145.969 49.6455 147.103 48.5113 147.103 47.1123C147.103 45.7132 145.969 44.5791 144.569 44.5791C143.17 44.5791 142.036 45.7132 142.036 47.1123C142.036 48.5113 143.17 49.6455 144.569 49.6455Z" fill="#F2B58C"/>
<path d="M123.897 33.8809C123.719 33.9433 123.547 34.0245 123.386 34.1232C123.238 34.2111 123.095 34.3073 122.958 34.4113C122.818 34.5136 122.689 34.6293 122.538 34.7424C122.468 34.8016 122.39 34.8581 122.309 34.9174C122.225 34.983 122.135 35.0407 122.04 35.0897C122.052 34.9838 122.074 34.8793 122.105 34.7774C122.141 34.6803 122.184 34.5858 122.234 34.4947C122.344 34.3123 122.487 34.1525 122.656 34.0236C122.831 33.8878 123.036 33.7955 123.254 33.7544C123.364 33.7322 123.478 33.7319 123.588 33.7536C123.699 33.7753 123.804 33.8186 123.897 33.8809Z" fill="#524A4C"/>
<path d="M144.562 32.454C144.739 32.3224 144.948 32.2389 145.167 32.2118C145.391 32.1829 145.618 32.204 145.832 32.2737C146.055 32.3473 146.252 32.4827 146.4 32.664C146.546 32.8404 146.624 33.0626 146.621 33.2913C146.47 33.1645 146.31 33.0493 146.142 32.9467C145.994 32.8606 145.838 32.7893 145.676 32.734C145.369 32.6236 144.998 32.5644 144.562 32.454Z" fill="#524A4C"/>
<path d="M147.167 15.3733C147.167 15.3733 141.21 34.6428 123.171 32.0638C123.171 32.0638 122.901 17.4946 147.167 15.3733Z" fill="#422225"/>
<path d="M117.372 39.7495C117.668 40.1856 121.475 32.0369 123.265 31.0166C125.055 29.9963 145.407 15.5482 145.407 15.5482C143.675 13.6007 141.483 12.1176 139.032 11.2341C136.58 10.3505 133.946 10.0947 131.37 10.4899C120.933 11.9894 115.821 20.1435 115.097 22.8221C114.373 25.5006 112.109 32.0638 117.372 39.7495Z" fill="#422225"/>
<path d="M144.362 18.7735C144.362 18.7735 142.478 25.6166 145.84 32.274C145.84 32.274 145.824 30.928 145.916 30.1742C145.916 30.1742 146.993 33.3669 148.974 35.4667C150.955 37.5665 153.41 39.6744 153.378 41.0688C153.378 41.0688 160.665 34.4841 157.766 27.781C153.37 17.6132 151.101 15.3681 146.769 16.4745L144.362 18.7735Z" fill="#422225"/>
<path d="M156.628 32.8149C156.628 32.8149 156.089 40.3338 155.268 41.6448L152.751 42.1078L152.07 36.1019L156.628 32.8149Z" fill="#422225"/>
<path d="M152.937 41.5589C152.937 41.5589 154.461 39.4052 155.268 41.645C156.076 43.8848 154.42 46.4153 153.303 46.4449C152.186 46.4745 151.747 45.0423 151.747 45.0423L152.937 41.5589Z" fill="#EFC3A3"/>
<path d="M68.4135 33.6048C69.3732 33.3114 69.7988 31.921 69.3642 30.4992C68.9295 29.0774 67.7991 28.1626 66.8394 28.456C65.8797 28.7494 65.454 30.1399 65.8887 31.5617C66.3234 32.9835 67.4538 33.8982 68.4135 33.6048Z" fill="#EFC3A3"/>
<path d="M23.8163 40.9718L23.5175 47.0773L0.471104 47.1635L0 16.7705L6.96158 15.8472C6.73365 18.0762 6.50483 20.368 6.27511 22.7226C6.04539 25.0772 5.85246 27.448 5.69632 29.8349C5.52762 32.2201 5.39212 34.5971 5.28983 36.9661C5.18753 39.3351 5.14446 41.6556 5.16061 43.9277V44.8914C5.90361 44.8645 6.80275 44.8134 7.85264 44.7434C8.90252 44.6734 10.0359 44.5495 11.2365 44.4203C12.4372 44.2911 13.6593 44.1053 14.9004 43.9061C16.1414 43.7069 17.3474 43.4485 18.4754 43.1793C19.5293 42.9208 20.5668 42.599 21.582 42.2155C22.3858 41.9174 23.1394 41.498 23.8163 40.9718Z" fill="#791E94"/>
<path d="M33.7983 21.7588C33.8012 22.2598 33.6995 22.7559 33.4995 23.2152C33.3154 23.6665 33.0405 24.0752 32.6919 24.4158C32.3466 24.7576 31.9403 25.0316 31.4939 25.2235C31.028 25.4267 30.5244 25.5294 30.016 25.525C29.5008 25.528 28.9905 25.4254 28.5166 25.2235C27.6119 24.8355 26.8909 24.1145 26.5029 23.2098C26.3021 22.7506 26.1994 22.2546 26.2014 21.7534C26.1983 21.2452 26.301 20.7419 26.5029 20.2755C26.6905 19.8205 26.9648 19.4063 27.3105 19.056C27.6568 18.7142 28.064 18.4403 28.5112 18.2484C28.9851 18.0465 29.4955 17.9439 30.0106 17.9469C30.519 17.9425 31.0226 18.0452 31.4886 18.2484C31.9349 18.4403 32.3412 18.7142 32.6865 19.056C33.0386 19.4011 33.3138 19.8167 33.4941 20.2755C33.6978 20.7434 33.8014 21.2486 33.7983 21.7588Z" fill="#791E94"/>
<path d="M33.0691 27.6919L31.4431 48.2967L27.3082 47.8687L27.0524 27.3716L33.0691 27.6919Z" fill="#791E94"/>
<path d="M38.5098 25.1427C38.8668 24.7445 39.1767 24.3064 39.4331 23.8371C39.6868 23.3625 39.819 22.8326 39.8181 22.2945V22.1249C39.4116 22.0558 39.0201 21.9174 38.6605 21.7158C38.3076 21.5195 37.9893 21.2667 37.7183 20.9674C37.4587 20.663 37.2489 20.3196 37.0964 19.9498C36.9521 19.5521 36.88 19.1318 36.8838 18.7088C36.877 18.2461 36.9688 17.7873 37.153 17.3627C37.3298 16.9475 37.5848 16.57 37.904 16.2509C38.2115 15.9393 38.5775 15.6914 38.9809 15.5214C39.4063 15.3404 39.8645 15.2487 40.3269 15.2522C40.8925 15.2362 41.4514 15.3769 41.9421 15.6587C42.4091 15.9271 42.8116 16.2947 43.1212 16.7355C43.4539 17.1862 43.7003 17.6946 43.848 18.235C44.0237 18.774 44.1145 19.3371 44.1172 19.904C44.1129 21.1998 43.7655 22.4714 43.1104 23.5894C42.7954 24.1459 42.3978 24.6515 41.9313 25.0889C41.4604 25.5158 40.9288 25.8705 40.3538 26.1414L38.5098 25.1427Z" fill="#791E94"/>
<path d="M54.2954 12.7217L53.2455 47.1204L49.1563 47.4623L48.1064 13.3005L54.2954 12.7217Z" fill="#791E94"/>
<path d="M126.121 43.5237C128.199 43.5237 129.884 41.8388 129.884 39.7603C129.884 37.6818 128.199 35.9968 126.121 35.9968C124.042 35.9968 122.358 37.6818 122.358 39.7603C122.358 41.8388 124.042 43.5237 126.121 43.5237Z" fill="#FDF4F1"/>
<path d="M126.121 43.6638C125.349 43.6638 124.595 43.4349 123.953 43.006C123.311 42.577 122.81 41.9674 122.515 41.2542C122.22 40.5409 122.142 39.756 122.293 38.9988C122.443 38.2417 122.815 37.5461 123.361 37.0002C123.907 36.4543 124.603 36.0826 125.36 35.9319C126.117 35.7813 126.902 35.8586 127.615 36.1541C128.328 36.4495 128.938 36.9498 129.367 37.5917C129.796 38.2337 130.025 38.9883 130.025 39.7604C130.024 40.7954 129.613 41.7878 128.881 42.5197C128.149 43.2516 127.156 43.6631 126.121 43.6638ZM126.121 36.1261C125.405 36.1277 124.705 36.3416 124.11 36.7406C123.515 37.1397 123.051 37.7061 122.778 38.3684C122.504 39.0306 122.433 39.759 122.573 40.4617C122.713 41.1643 123.059 41.8097 123.565 42.3164C124.072 42.823 124.717 43.1682 125.42 43.3084C126.123 43.4485 126.851 43.3774 127.513 43.104C128.176 42.8305 128.742 42.367 129.141 41.7719C129.54 41.1768 129.754 40.4769 129.756 39.7604C129.754 38.7977 129.37 37.875 128.689 37.195C128.008 36.5151 127.084 36.1335 126.121 36.1342V36.1261Z" fill="black"/>
<path d="M126.597 42.4738C128.216 42.4738 129.529 41.0239 129.529 39.2353C129.529 37.4468 128.216 35.9968 126.597 35.9968C124.978 35.9968 123.666 37.4468 123.666 39.2353C123.666 41.0239 124.978 42.4738 126.597 42.4738Z" fill="#211517"/>
<path d="M122.579 38.4817C122.337 38.7166 122.066 38.9185 121.771 39.082C121.303 39.292 122.433 39.0147 122.433 39.0147L122.579 38.4817Z" fill="#211517"/>
<path d="M122.363 39.467C122.194 39.7625 121.986 40.0341 121.744 40.2746C121.351 40.6031 122.363 40.0297 122.363 40.0297V39.467Z" fill="#211517"/>
<path d="M122.974 37.5959C122.823 37.6363 122.49 38.0024 121.897 38.1693C121.305 38.3363 122.705 38.2097 122.705 38.2097L122.974 37.5959Z" fill="#211517"/>
<path d="M142.575 42.2452C144.654 42.2452 146.339 40.5602 146.339 38.4817C146.339 36.4032 144.654 34.7183 142.575 34.7183C140.497 34.7183 138.812 36.4032 138.812 38.4817C138.812 40.5602 140.497 42.2452 142.575 42.2452Z" fill="#FDF4F1"/>
<path d="M142.575 42.385C141.802 42.385 141.048 42.1561 140.406 41.7272C139.764 41.2982 139.264 40.6886 138.968 39.9753C138.673 39.2621 138.595 38.4772 138.746 37.72C138.897 36.9628 139.268 36.2673 139.814 35.7214C140.36 35.1755 141.056 34.8037 141.813 34.6531C142.57 34.5025 143.355 34.5798 144.068 34.8753C144.782 35.1707 145.391 35.671 145.82 36.3129C146.249 36.9548 146.478 37.7095 146.478 38.4816C146.477 39.5164 146.065 40.5084 145.333 41.2401C144.601 41.9719 143.609 42.3836 142.575 42.385ZM142.575 34.8473C141.857 34.8473 141.156 35.06 140.56 35.4584C139.964 35.8569 139.499 36.4232 139.224 37.0858C138.95 37.7484 138.878 38.4775 139.018 39.1809C139.158 39.8843 139.503 40.5304 140.01 41.0376C140.518 41.5447 141.164 41.8901 141.867 42.03C142.57 42.1699 143.3 42.0981 143.962 41.8236C144.625 41.5492 145.191 41.0844 145.59 40.4881C145.988 39.8918 146.201 39.1907 146.201 38.4735C146.198 37.5134 145.815 36.5935 145.135 35.9154C144.455 35.2373 143.535 34.8561 142.575 34.8554V34.8473Z" fill="black"/>
<path d="M142.098 41.1926C143.717 41.1926 145.03 39.7427 145.03 37.9541C145.03 36.1655 143.717 34.7156 142.098 34.7156C140.479 34.7156 139.166 36.1655 139.166 37.9541C139.166 39.7427 140.479 41.1926 142.098 41.1926Z" fill="#211517"/>
<path d="M146.115 37.2031C146.357 37.437 146.628 37.6387 146.922 37.8034C147.391 38.0134 146.26 37.7361 146.26 37.7361L146.115 37.2031Z" fill="#211517"/>
<path d="M146.333 38.1855C146.501 38.4813 146.709 38.753 146.95 38.9932C147.346 39.3216 146.331 38.7482 146.331 38.7482L146.333 38.1855Z" fill="#211517"/>
<path d="M145.719 36.3171C145.87 36.3575 146.206 36.7236 146.809 36.8905C147.412 37.0574 146.002 36.9309 146.002 36.9309L145.719 36.3171Z" fill="#211517"/>
</svg>
