<svg xmlns="http://www.w3.org/2000/svg" width="100" height="47" viewBox="0 0 100 47" fill="none">
  <path d="M50.6689 0.00173635L48.839 4.45016L47.027 8.85292V0.00173635H19.0353L0 46.272H18.9427L20.7722 41.8237L22.5838 37.4208V46.272H31.7766L36.8283 33.992C34.3071 34.5831 31.6603 34.3109 29.3122 33.2189C26.9641 32.1268 25.0503 30.2782 23.8778 27.9692C22.7054 25.6602 22.3419 23.0244 22.8456 20.4842C23.3494 17.944 24.6913 15.6464 26.6562 13.9595C28.6211 12.2727 31.0953 11.2941 33.6825 11.1807C36.2697 11.0674 38.82 11.8258 40.9249 13.3343C43.0298 14.8429 44.5673 17.0143 45.2913 19.5007C46.0153 21.9871 45.8837 24.6446 44.9177 27.0473H44.922L37.0148 46.2704H46.6657L65.7009 0L50.6689 0.00173635Z" fill="white"/>
  <path d="M34.1973 16.0361C32.8702 16.0361 31.5729 16.4297 30.4695 17.167C29.366 17.9043 28.506 18.9523 27.9981 20.1784C27.4903 21.4046 27.3574 22.7538 27.6164 24.0554C27.8753 25.357 28.5143 26.5526 29.4528 27.491C30.3913 28.4294 31.5869 29.0685 32.8885 29.3274C34.1902 29.5862 35.5394 29.4533 36.7655 28.9454C37.9916 28.4374 39.0395 27.5772 39.7767 26.4737C40.514 25.3702 40.9075 24.0729 40.9074 22.7458C40.9052 20.9669 40.1975 19.2614 38.9396 18.0036C37.6817 16.7458 35.9762 16.0382 34.1973 16.0361Z" fill="white"/>
  <path d="M91.1623 37.3213H87.9099V46.2737H91.1623V37.3213Z" fill="#12FD29"/>
  <path d="M91.1623 29.4563H87.9099V34.0691H91.1623V29.4563Z" fill="#12FD29"/>
  <path d="M99.8348 29.4563H96.5825V34.0691H99.8348V29.4563Z" fill="#12FD29"/>
  <path d="M96.5829 37.3214V34.0691H91.1627V37.3214H96.5829Z" fill="#12FD29"/>
  <path d="M99.8348 37.3213H96.5825V46.2737H99.8348V37.3213Z" fill="#12FD29"/>
  <path d="M76.3469 31.0979H73.0946V46.2738H76.3469V31.0979Z" fill="#12FD29"/>
  <path d="M73.0946 29.4562V32.7085H84.6576V29.4562H73.0946Z" fill="#12FD29"/>
  <path d="M73.0946 37.3214V40.5737H82.1583V37.3214H73.0946Z" fill="#12FD29"/>
  <path d="M56.8187 29.4563H53.5664V39.7701H56.8187V29.4563Z" fill="#12FD29"/>
  <path d="M69.8273 29.4563H66.575V39.7701H69.8273V29.4563Z" fill="#12FD29"/>
  <path d="M60.0712 39.77H56.8189V43.0219H60.0712V39.77Z" fill="#12FD29"/>
  <path d="M63.3231 43.022H60.0708V46.2739H63.3231V43.022Z" fill="#12FD29"/>
  <path d="M66.5754 39.77H63.3231V43.0219H66.5754V39.77Z" fill="#12FD29"/>
</svg>