<svg width="301" height="65" viewBox="0 0 301 65" fill="none" xmlns="http://www.w3.org/2000/svg">
<path d="M8.25908 36.8078V37.7496C9.85294 42.4587 14.0549 45.6465 18.8365 45.6465C22.314 45.6465 25.5017 43.9802 27.5303 41.2996L32.6016 46.3709C29.1241 49.9933 24.1252 52.1668 18.8365 52.1668C8.83867 52.1668 0 44.4148 0 33.6925C0 22.9702 8.83867 15.2183 18.8365 15.2183C31.8772 15.2183 37.8904 24.9988 37.6006 36.8078H8.25908ZM8.25908 29.6354V30.6497H29.4139V29.6354C27.8925 24.9988 23.6181 21.7386 18.8365 21.7386C14.0549 21.7386 9.85294 24.9263 8.25908 29.6354Z" fill="white"/>
<path d="M71.4331 49.1237C71.5056 49.4135 71.7953 49.4135 72.1576 49.2686C73.4617 48.5442 73.9688 46.9503 74.4035 45.284L74.5484 44.632H76.5045L76.2871 45.4289C74.9831 50.2829 72.0851 52.3115 67.7383 52.3115C62.0873 52.3115 61.7975 48.3268 62.3771 45.0666L65.9995 24.2016C66.9413 19.0578 65.3475 18.1884 61.7975 18.1884C61.2904 18.1884 60.7832 18.2608 60.2761 18.3333C58.4649 18.6955 56.7261 19.7098 55.4221 20.7965L50.2058 50.3554H53.8282L53.466 52.3115H36.5856L36.9478 50.3554H40.5702L45.5691 21.9557C45.8589 20.3618 46.8732 18.9129 48.0324 17.8986H42.6712L43.0335 16.0874H56.219L55.7843 18.5506C56.6537 18.0435 57.5231 17.5364 58.5373 17.1741C60.2037 16.4496 62.0873 16.0874 64.2607 16.0874C72.0851 16.0874 76.2147 20.6516 75.4178 25.4332L71.4331 48.1819C71.2882 48.6891 71.3607 48.9788 71.4331 49.1237Z" fill="white"/>
<path d="M218.284 14.9292C220.216 14.9292 221.472 15.6537 222.051 17.1026C222.631 18.5033 222.92 20.4594 222.92 22.9709V25.2168V45.7196C222.92 46.2509 223.09 46.8064 223.428 47.386C223.766 47.9172 224.249 48.1829 224.877 48.1829C225.698 48.1829 226.398 47.9172 226.978 47.386C227.557 46.8547 228.137 46.1785 228.716 45.3574L229.803 46.4441C229.079 47.9897 227.992 49.342 226.543 50.5012C225.094 51.6121 223.717 52.1675 222.413 52.1675C220.481 52.1675 218.984 51.5638 217.922 50.3563C216.859 49.1489 216.328 47.3135 216.328 44.8503V25.6515C216.328 24.927 216.255 24.3233 216.11 23.8403C215.965 23.3573 215.603 23.1158 215.024 23.1158C213.043 23.1158 211.015 25.0236 208.938 28.8392C206.861 32.6548 205.074 36.9293 203.577 41.6626C202.128 46.3475 201.403 49.4386 201.403 50.9359L195.1 52.8196V21.8118C195.1 21.1356 194.907 20.5319 194.521 20.0006C194.183 19.421 193.676 19.1312 192.999 19.1312C191.84 19.1312 190.584 20.1696 189.232 22.2465L188.145 21.0873C188.773 19.3485 189.812 17.8996 191.261 16.7404C192.71 15.5329 194.159 14.9292 195.608 14.9292C197.636 14.9292 199.133 15.4122 200.099 16.3782C201.114 17.3441 201.621 18.6724 201.621 20.3628V39.4167H201.911C203.215 35.1181 204.47 31.3749 205.678 28.1872C206.885 24.9995 208.576 22.005 210.749 19.2036C212.923 16.354 215.434 14.9292 218.284 14.9292Z" fill="white"/>
<path d="M106.596 52.5619C103.155 52.5619 100.31 51.8507 98.0619 50.4283C95.8595 48.9601 94.2077 46.8494 93.1065 44.0964C92.0512 41.3434 91.5235 38.0168 91.5235 34.1167L91.1794 34.0478C91.1794 30.1936 91.73 26.89 92.8312 24.1369C93.9783 21.3839 95.6989 19.2732 97.9931 17.805C100.287 16.3367 103.132 15.6025 106.528 15.6025C109.785 15.6025 112.653 16.3367 115.131 17.805C117.608 19.2274 119.536 21.3151 120.912 24.0681C122.334 26.8211 123.046 30.1706 123.046 34.1167C123.046 37.9709 122.334 41.2975 120.912 44.0964C119.536 46.8494 117.608 48.9601 115.131 50.4283C112.653 51.8507 109.808 52.5619 106.596 52.5619ZM104.256 47.813C106.505 47.813 108.455 47.2853 110.106 46.23C111.804 45.1747 113.112 43.6146 114.03 41.5498C114.993 39.4851 115.475 37.0073 115.475 34.1167C115.475 31.1342 114.993 28.6335 114.03 26.6147C113.112 24.5499 111.804 22.9898 110.106 21.9345C108.455 20.8333 106.505 20.2827 104.256 20.2827C102.008 20.2827 100.012 20.8333 98.2684 21.9345C96.5707 22.9898 95.2401 24.5499 94.2765 26.6147C93.3588 28.6335 92.9 31.1342 92.9 34.1167C92.9 37.0073 93.3588 39.4851 94.2765 41.5498C95.2401 43.6146 96.5707 45.1747 98.2684 46.23C100.012 47.2853 102.008 47.813 104.256 47.813ZM80.2361 64.8817V61.234H86.1551V19.9386H80.649V16.2908H92.6935V28.1976L92.0053 34.0478L93.2441 41.5498V61.234H99.8514V64.8817H80.2361Z" fill="white"/>
<path d="M133.755 52.422V47.5933H128.758V21.0357H133.755V16.0947H150.374V21.0357H155.428V47.5933H150.374V52.422H133.755ZM135.383 45.4598H148.746V23.1131H135.383V45.4598Z" fill="white"/>
<path d="M178.908 16.5191V47.3457H188.86V51.8022H162.389V47.3457H173.279V20.9755H162.724V16.5191H178.908ZM174.418 0C175.669 0 176.663 0.379748 177.401 1.13925C178.16 1.89875 178.54 2.82578 178.54 3.92035C178.54 5.0596 178.16 6.02014 177.401 6.80197C176.663 7.56147 175.669 7.94122 174.418 7.94122C173.234 7.94122 172.263 7.56147 171.503 6.80197C170.744 6.02014 170.364 5.0596 170.364 3.92035C170.364 2.82578 170.744 1.89875 171.503 1.13925C172.263 0.379748 173.234 0 174.418 0Z" fill="white"/>
<path d="M249.943 52.6019C245.596 52.6019 242.384 51.2737 240.308 48.6173C238.231 45.9609 237.289 42.2902 237.482 37.6052L238.062 18.986H227.846V14.784H231.179C233.401 14.784 235.14 14.5184 236.395 13.9871C237.651 13.4558 238.545 12.6106 239.076 11.4514C239.655 10.2922 239.945 8.79499 239.945 6.95963V4.56885H244.944V39.2715C244.944 41.6381 245.475 43.4976 246.538 44.85C247.601 46.1541 249.17 46.8061 251.247 46.8061C253.421 46.8061 255.014 46.1541 256.029 44.85C257.043 43.5459 257.55 41.6864 257.55 39.2715V31.8818H262.404V39.199C262.404 43.3527 261.39 46.637 259.361 49.052C257.333 51.4186 254.193 52.6019 249.943 52.6019ZM244.944 18.986V14.4942H263.563V18.986H244.944Z" fill="white"/>
<path d="M275.049 34.8855C275.17 37.8318 275.737 40.2467 276.751 42.1304C277.766 43.9899 279.106 45.3664 280.772 46.2599C282.438 47.1293 284.25 47.564 286.206 47.564C288.162 47.564 289.925 47.2742 291.494 46.6946C293.088 46.115 294.718 45.2577 296.385 44.1227L299.246 48.1436C297.459 49.5442 295.419 50.643 293.125 51.4399C290.855 52.2369 288.524 52.6353 286.133 52.6353C282.438 52.6353 279.287 51.8022 276.679 50.1359C274.071 48.4696 272.078 46.1512 270.702 43.1809C269.35 40.1863 268.673 36.7209 268.673 32.7846C268.673 28.9207 269.362 25.4914 270.738 22.4969C272.115 19.5024 274.047 17.1478 276.534 15.4332C279.021 13.7186 281.955 12.8613 285.336 12.8613C288.548 12.8613 291.313 13.622 293.632 15.1434C295.95 16.6407 297.725 18.79 298.957 21.5913C300.212 24.3685 300.84 27.689 300.84 31.5529C300.84 32.205 300.828 32.8208 300.804 33.4004C300.78 33.9558 300.744 34.4509 300.695 34.8855H275.049ZM285.409 17.8602C282.583 17.8602 280.217 18.8624 278.309 20.8668C276.425 22.8712 275.351 25.9744 275.085 30.1764H294.972C294.9 26.0952 294.006 23.0282 292.291 20.9755C290.577 18.8987 288.283 17.8602 285.409 17.8602Z" fill="white"/>
</svg>
