<!-- <svg width="422" height="91" viewBox="0 0 422 91" fill="none" xmlns="http://www.w3.org/2000/svg">
<path d="M11.5714 51.5702V52.8897C13.8045 59.4875 19.6917 63.9536 26.3909 63.9536C31.2631 63.9536 35.7293 61.619 38.5714 57.8634L45.6767 64.9687C40.8045 70.0438 33.8007 73.089 26.3909 73.089C12.3834 73.089 0 62.2281 0 47.2055C0 32.183 12.3834 21.3221 26.3909 21.3221C44.6616 21.3221 53.0864 35.0251 52.6804 51.5702H11.5714ZM11.5714 41.5213V42.9424H41.2105V41.5213C39.0789 35.0251 33.0902 30.4574 26.3909 30.4574C19.6917 30.4574 13.8045 34.9236 11.5714 41.5213Z" fill="black"/>
<path d="M100.082 68.8251C100.184 69.2311 100.59 69.2311 101.097 69.0281C102.924 68.0131 103.635 65.78 104.244 63.4454L104.447 62.5319H107.187L106.883 63.6484C105.056 70.4492 100.996 73.2913 94.9054 73.2913C86.9881 73.2913 86.5821 67.7086 87.3941 63.1409L92.4693 33.9078C93.7888 26.7011 91.5557 25.483 86.5821 25.483C85.8715 25.483 85.161 25.5845 84.4505 25.686C81.9129 26.1936 79.4768 27.6146 77.6497 29.1372L70.3415 70.5507H75.4167L74.9091 73.2913H51.2588L51.7663 70.5507H56.8415L63.8452 30.7612C64.2513 28.5281 65.6723 26.4981 67.2964 25.077H59.7851L60.2926 22.5394H78.7663L78.1573 25.9906C79.3753 25.28 80.5934 24.5695 82.0144 24.062C84.349 23.0469 86.9881 22.5394 90.0332 22.5394C100.996 22.5394 106.781 28.9342 105.665 35.6334L100.082 67.5056C99.8791 68.2161 99.9806 68.6221 100.082 68.8251Z" fill="black"/>
<path d="M305.827 20.9163C308.534 20.9163 310.293 21.9313 311.105 23.9614C311.917 25.9238 312.323 28.6644 312.323 32.1832V35.3298V64.0553C312.323 64.7997 312.56 65.5779 313.034 66.3899C313.508 67.1343 314.184 67.5065 315.064 67.5065C316.214 67.5065 317.196 67.1343 318.008 66.3899C318.82 65.6456 319.632 64.6982 320.444 63.5478L321.966 65.0704C320.951 67.2358 319.429 69.1305 317.399 70.7546C315.368 72.311 313.44 73.0892 311.613 73.0892C308.906 73.0892 306.808 72.2433 305.32 70.5516C303.831 68.8598 303.087 66.2884 303.087 62.8373V35.9388C303.087 34.9238 302.985 34.0779 302.782 33.4012C302.579 32.7245 302.071 32.3862 301.259 32.3862C298.485 32.3862 295.643 35.0591 292.733 40.405C289.823 45.7508 287.32 51.7396 285.222 58.3711C283.192 64.935 282.177 69.2659 282.177 71.3636L273.346 74.0027V30.5591C273.346 29.6117 273.075 28.7659 272.534 28.0215C272.06 27.2095 271.35 26.8035 270.402 26.8035C268.778 26.8035 267.019 28.2584 265.124 31.1681L263.602 29.5441C264.481 27.108 265.936 25.0779 267.966 23.4539C269.996 21.7621 272.026 20.9163 274.056 20.9163C276.899 20.9163 278.996 21.593 280.35 22.9463C281.771 24.2997 282.481 26.1606 282.481 28.529V55.2245H282.887C284.714 49.202 286.474 43.9576 288.165 39.4914C289.857 35.0253 292.226 30.8298 295.271 26.905C298.316 22.9125 301.835 20.9163 305.827 20.9163Z" fill="black"/>
<path d="M149.348 73.6418C144.527 73.6418 140.541 72.6454 137.391 70.6525C134.305 68.5954 131.991 65.6382 130.448 61.7811C128.97 57.9239 128.23 53.2632 128.23 47.7989L127.748 47.7025C127.748 42.3025 128.52 37.674 130.062 33.8168C131.67 29.9597 134.08 27.0025 137.295 24.9454C140.509 22.8882 144.495 21.8597 149.252 21.8597C153.816 21.8597 157.834 22.8882 161.305 24.9454C164.777 26.9382 167.477 29.8632 169.405 33.7204C171.398 37.5775 172.395 42.2704 172.395 47.7989C172.395 53.1989 171.398 57.8597 169.405 61.7811C167.477 65.6382 164.777 68.5954 161.305 70.6525C157.834 72.6454 153.848 73.6418 149.348 73.6418ZM146.07 66.9882C149.22 66.9882 151.952 66.2489 154.266 64.7704C156.645 63.2918 158.477 61.1061 159.762 58.2132C161.112 55.3204 161.787 51.8489 161.787 47.7989C161.787 43.6204 161.112 40.1168 159.762 37.2882C158.477 34.3954 156.645 32.2097 154.266 30.7311C151.952 29.1882 149.22 28.4168 146.07 28.4168C142.92 28.4168 140.123 29.1882 137.68 30.7311C135.302 32.2097 133.437 34.3954 132.087 37.2882C130.802 40.1168 130.159 43.6204 130.159 47.7989C130.159 51.8489 130.802 55.3204 132.087 58.2132C133.437 61.1061 135.302 63.2918 137.68 64.7704C140.123 66.2489 142.92 66.9882 146.07 66.9882ZM112.416 90.9025V85.7918H120.709V27.9347H112.995V22.824H129.87V39.5061L128.905 47.7025L130.641 58.2132V85.7918H139.898V90.9025H112.416Z" fill="black"/>
<path d="M187.399 73.446V66.6808H180.397V29.4721H187.399V22.5496H210.684V29.4721H217.764V66.6808H210.684V73.446H187.399ZM189.68 63.6915H208.402V32.3827H189.68V63.6915Z" fill="black"/>
<path d="M250.661 23.1441V66.3339H264.604V72.5777H227.517V66.3339H242.774V29.3879H227.986V23.1441H250.661ZM244.37 0C246.123 0 247.515 0.532048 248.548 1.59615C249.612 2.66024 250.144 3.95907 250.144 5.49262C250.144 7.08877 249.612 8.43454 248.548 9.52993C247.515 10.594 246.123 11.1261 244.37 11.1261C242.711 11.1261 241.35 10.594 240.286 9.52993C239.222 8.43454 238.69 7.08877 238.69 5.49262C238.69 3.95907 239.222 2.66024 240.286 1.59615C241.35 0.532048 242.711 0 244.37 0Z" fill="black"/>
<path d="M350.184 73.6986C344.094 73.6986 339.594 71.8377 336.684 68.1159C333.774 64.3941 332.455 59.2513 332.726 52.6874L333.538 26.6009H319.226V20.7137H323.895C327.008 20.7137 329.444 20.3415 331.203 19.5971C332.962 18.8528 334.214 17.6686 334.959 16.0445C335.771 14.4205 336.177 12.3227 336.177 9.75129V6.40167H343.18V55.0219C343.18 58.3377 343.925 60.943 345.414 62.8377C346.902 64.6648 349.102 65.5783 352.011 65.5783C355.056 65.5783 357.289 64.6648 358.711 62.8377C360.132 61.0107 360.842 58.4054 360.842 55.0219V44.6686H367.643V54.9204C367.643 60.74 366.222 65.3415 363.38 68.7249C360.538 72.0407 356.139 73.6986 350.184 73.6986ZM343.18 26.6009V20.3077H369.267V26.6009H343.18Z" fill="black"/>
<path d="M385.359 48.8768C385.528 53.0046 386.323 56.388 387.744 59.0271C389.165 61.6324 391.043 63.561 393.378 64.8128C395.712 66.0309 398.25 66.6399 400.991 66.6399C403.731 66.6399 406.201 66.2339 408.4 65.4219C410.633 64.6098 412.917 63.4087 415.252 61.8185L419.261 67.4519C416.758 69.4143 413.899 70.9538 410.684 72.0704C407.504 73.1869 404.239 73.7452 400.889 73.7452C395.712 73.7452 391.297 72.5779 387.643 70.2433C383.989 67.9087 381.197 64.6606 379.269 60.4989C377.374 56.3035 376.427 51.4482 376.427 45.9332C376.427 40.5196 377.391 35.7151 379.32 31.5196C381.248 27.3242 383.955 24.0253 387.44 21.623C390.925 19.2208 395.036 18.0197 399.773 18.0197C404.273 18.0197 408.147 19.0854 411.395 21.217C414.643 23.3148 417.13 26.326 418.855 30.2508C420.615 34.1418 421.494 38.7941 421.494 44.2076C421.494 45.1211 421.477 45.9839 421.444 46.7959C421.41 47.5741 421.359 48.2677 421.291 48.8768H385.359ZM399.874 25.0234C395.915 25.0234 392.6 26.4275 389.927 29.2358C387.288 32.0441 385.782 36.3918 385.41 42.279H413.273C413.171 36.561 411.919 32.264 409.517 29.3881C407.115 26.4783 403.9 25.0234 399.874 25.0234Z" fill="black"/>
</svg>
 -->

<svg width="422" height="91" viewBox="0 0 422 91" fill="none" xmlns="http://www.w3.org/2000/svg">
<path d="M11.5714 51.5702V52.8897C13.8045 59.4875 19.6917 63.9536 26.3909 63.9536C31.2631 63.9536 35.7293 61.619 38.5714 57.8634L45.6767 64.9687C40.8045 70.0438 33.8007 73.089 26.3909 73.089C12.3834 73.089 0 62.2281 0 47.2055C0 32.183 12.3834 21.3221 26.3909 21.3221C44.6616 21.3221 53.0864 35.0251 52.6804 51.5702H11.5714ZM11.5714 41.5213V42.9424H41.2105V41.5213C39.0789 35.0251 33.0902 30.4574 26.3909 30.4574C19.6917 30.4574 13.8045 34.9236 11.5714 41.5213Z" fill="white"/>
<path d="M100.082 68.8251C100.184 69.2311 100.59 69.2311 101.097 69.0281C102.924 68.0131 103.635 65.78 104.244 63.4454L104.447 62.5319H107.187L106.883 63.6484C105.056 70.4492 100.996 73.2913 94.9054 73.2913C86.9881 73.2913 86.5821 67.7086 87.3941 63.1409L92.4693 33.9078C93.7888 26.7011 91.5557 25.483 86.5821 25.483C85.8715 25.483 85.161 25.5845 84.4505 25.686C81.9129 26.1936 79.4768 27.6146 77.6497 29.1372L70.3415 70.5507H75.4167L74.9091 73.2913H51.2588L51.7663 70.5507H56.8415L63.8452 30.7612C64.2513 28.5281 65.6723 26.4981 67.2964 25.077H59.7851L60.2926 22.5394H78.7663L78.1573 25.9906C79.3753 25.28 80.5934 24.5695 82.0144 24.062C84.349 23.0469 86.9881 22.5394 90.0332 22.5394C100.996 22.5394 106.781 28.9342 105.665 35.6334L100.082 67.5056C99.8791 68.2161 99.9806 68.6221 100.082 68.8251Z" fill="white"/>
<path d="M305.827 20.9163C308.534 20.9163 310.293 21.9313 311.105 23.9614C311.917 25.9238 312.323 28.6644 312.323 32.1832V35.3298V64.0553C312.323 64.7997 312.56 65.5779 313.034 66.3899C313.508 67.1343 314.184 67.5065 315.064 67.5065C316.214 67.5065 317.196 67.1343 318.008 66.3899C318.82 65.6456 319.632 64.6982 320.444 63.5478L321.966 65.0704C320.951 67.2358 319.429 69.1305 317.399 70.7546C315.368 72.311 313.44 73.0892 311.613 73.0892C308.906 73.0892 306.808 72.2433 305.32 70.5516C303.831 68.8598 303.087 66.2884 303.087 62.8373V35.9388C303.087 34.9238 302.985 34.0779 302.782 33.4012C302.579 32.7245 302.071 32.3862 301.259 32.3862C298.485 32.3862 295.643 35.0591 292.733 40.405C289.823 45.7508 287.32 51.7396 285.222 58.3711C283.192 64.935 282.177 69.2659 282.177 71.3636L273.346 74.0027V30.5591C273.346 29.6117 273.075 28.7659 272.534 28.0215C272.06 27.2095 271.35 26.8035 270.402 26.8035C268.778 26.8035 267.019 28.2584 265.124 31.1681L263.602 29.5441C264.481 27.108 265.936 25.0779 267.966 23.4539C269.996 21.7621 272.026 20.9163 274.056 20.9163C276.899 20.9163 278.996 21.593 280.35 22.9463C281.771 24.2997 282.481 26.1606 282.481 28.529V55.2245H282.887C284.714 49.202 286.474 43.9576 288.165 39.4914C289.857 35.0253 292.226 30.8298 295.271 26.905C298.316 22.9125 301.835 20.9163 305.827 20.9163Z" fill="white"/>
<path d="M149.348 73.6418C144.527 73.6418 140.541 72.6454 137.391 70.6525C134.305 68.5954 131.991 65.6382 130.448 61.7811C128.97 57.9239 128.23 53.2632 128.23 47.7989L127.748 47.7025C127.748 42.3025 128.52 37.674 130.062 33.8168C131.67 29.9597 134.08 27.0025 137.295 24.9454C140.509 22.8882 144.495 21.8597 149.252 21.8597C153.816 21.8597 157.834 22.8882 161.305 24.9454C164.777 26.9382 167.477 29.8632 169.405 33.7204C171.398 37.5775 172.395 42.2704 172.395 47.7989C172.395 53.1989 171.398 57.8597 169.405 61.7811C167.477 65.6382 164.777 68.5954 161.305 70.6525C157.834 72.6454 153.848 73.6418 149.348 73.6418ZM146.07 66.9882C149.22 66.9882 151.952 66.2489 154.266 64.7704C156.645 63.2918 158.477 61.1061 159.762 58.2132C161.112 55.3204 161.787 51.8489 161.787 47.7989C161.787 43.6204 161.112 40.1168 159.762 37.2882C158.477 34.3954 156.645 32.2097 154.266 30.7311C151.952 29.1882 149.22 28.4168 146.07 28.4168C142.92 28.4168 140.123 29.1882 137.68 30.7311C135.302 32.2097 133.437 34.3954 132.087 37.2882C130.802 40.1168 130.159 43.6204 130.159 47.7989C130.159 51.8489 130.802 55.3204 132.087 58.2132C133.437 61.1061 135.302 63.2918 137.68 64.7704C140.123 66.2489 142.92 66.9882 146.07 66.9882ZM112.416 90.9025V85.7918H120.709V27.9347H112.995V22.824H129.87V39.5061L128.905 47.7025L130.641 58.2132V85.7918H139.898V90.9025H112.416Z" fill="white"/>
<path d="M187.399 73.446V66.6808H180.397V29.4721H187.399V22.5496H210.684V29.4721H217.764V66.6808H210.684V73.446H187.399ZM189.68 63.6915H208.402V32.3827H189.68V63.6915Z" fill="white"/>
<path d="M250.661 23.1441V66.3339H264.604V72.5777H227.517V66.3339H242.774V29.3879H227.986V23.1441H250.661ZM244.37 0C246.123 0 247.515 0.532048 248.548 1.59615C249.612 2.66024 250.144 3.95907 250.144 5.49262C250.144 7.08877 249.612 8.43454 248.548 9.52993C247.515 10.594 246.123 11.1261 244.37 11.1261C242.711 11.1261 241.35 10.594 240.286 9.52993C239.222 8.43454 238.69 7.08877 238.69 5.49262C238.69 3.95907 239.222 2.66024 240.286 1.59615C241.35 0.532048 242.711 0 244.37 0Z" fill="white"/>
<path d="M350.184 73.6986C344.094 73.6986 339.594 71.8377 336.684 68.1159C333.774 64.3941 332.455 59.2513 332.726 52.6874L333.538 26.6009H319.226V20.7137H323.895C327.008 20.7137 329.444 20.3415 331.203 19.5971C332.962 18.8528 334.214 17.6686 334.959 16.0445C335.771 14.4205 336.177 12.3227 336.177 9.75129V6.40167H343.18V55.0219C343.18 58.3377 343.925 60.943 345.414 62.8377C346.902 64.6648 349.102 65.5783 352.011 65.5783C355.056 65.5783 357.289 64.6648 358.711 62.8377C360.132 61.0107 360.842 58.4054 360.842 55.0219V44.6686H367.643V54.9204C367.643 60.74 366.222 65.3415 363.38 68.7249C360.538 72.0407 356.139 73.6986 350.184 73.6986ZM343.18 26.6009V20.3077H369.267V26.6009H343.18Z" fill="white"/>
<path d="M385.359 48.8768C385.528 53.0046 386.323 56.388 387.744 59.0271C389.165 61.6324 391.043 63.561 393.378 64.8128C395.712 66.0309 398.25 66.6399 400.991 66.6399C403.731 66.6399 406.201 66.2339 408.4 65.4219C410.633 64.6098 412.917 63.4087 415.252 61.8185L419.261 67.4519C416.758 69.4143 413.899 70.9538 410.684 72.0704C407.504 73.1869 404.239 73.7452 400.889 73.7452C395.712 73.7452 391.297 72.5779 387.643 70.2433C383.989 67.9087 381.197 64.6606 379.269 60.4989C377.374 56.3035 376.427 51.4482 376.427 45.9332C376.427 40.5196 377.391 35.7151 379.32 31.5196C381.248 27.3242 383.955 24.0253 387.44 21.623C390.925 19.2208 395.036 18.0197 399.773 18.0197C404.273 18.0197 408.147 19.0854 411.395 21.217C414.643 23.3148 417.13 26.326 418.855 30.2508C420.615 34.1418 421.494 38.7941 421.494 44.2076C421.494 45.1211 421.477 45.9839 421.444 46.7959C421.41 47.5741 421.359 48.2677 421.291 48.8768H385.359ZM399.874 25.0234C395.915 25.0234 392.6 26.4275 389.927 29.2358C387.288 32.0441 385.782 36.3918 385.41 42.279H413.273C413.171 36.561 411.919 32.264 409.517 29.3881C407.115 26.4783 403.9 25.0234 399.874 25.0234Z" fill="white"/>
</svg>
