<svg width="165" height="28" viewBox="0 0 165 28" fill="none" xmlns="http://www.w3.org/2000/svg">
<path d="M29.3515 14C29.3515 5.29533 23.1799 0 14.6574 0C6.17152 0 0 5.29533 0 14C0 22.7047 6.17152 28 14.6941 28C23.1799 28 29.3515 22.7047 29.3515 14ZM17.2656 17.4456C17.2656 19.6943 16.5309 21.399 14.6941 21.399C12.8206 21.399 12.1226 19.6943 12.1226 17.4456V10.5907C12.1226 8.3057 12.7839 6.60104 14.6574 6.60104C16.4941 6.6373 17.2288 8.34197 17.2656 10.5907V17.4456Z" fill="#ED1C24"/>
<path d="M55.2277 27.3471V7.61658H45.4194V18.3523C44.7582 20.8187 43.6928 21.544 42.7377 21.544C41.6357 21.544 41.5622 20.0207 41.5622 18.2798V7.61658H31.7171V21.2539C31.7171 24.9896 34.2886 27.7824 37.7417 27.7824C41.3785 27.7824 44.0969 25.4974 45.4194 23.1399V27.3471H55.2277Z" fill="#ED1C24"/>
<path d="M74.508 25.8238V20.6736C73.1855 21.6891 69.7691 21.6166 69.7691 18.8601V13.2383H74.508V7.61658H69.7691V2.10363H62.3853L60.3282 7.61658H56.875V13.2383H59.9608V20.9275C59.9608 25.3161 63.3037 27.7824 67.5283 27.7824C69.512 27.7824 73.3324 27.0933 74.508 25.8238Z" fill="#ED1C24"/>
<path d="M86.1573 27.3471V0.689119H76.349V27.3471H86.1573Z" fill="#ED1C24"/>
<path d="M112.301 17.6269C112.264 11.2798 107.195 7.21762 100.215 7.21762C93.2355 7.21762 88.166 11.2798 88.166 17.6269C88.166 24.0104 93.2355 27.7824 100.215 27.7461C107.232 27.7461 112.301 23.9741 112.301 17.6269ZM101.905 20.2746C101.905 21.544 101.427 22.5233 100.215 22.5233C99.0029 22.5233 98.5253 21.544 98.5253 20.2746V14.7979C98.5253 13.4922 99.0029 12.513 100.215 12.513C101.427 12.5492 101.905 13.5285 101.905 14.7979V20.2746Z" fill="#ED1C24"/>
<path d="M137.485 17.6269C137.448 11.2798 132.379 7.21762 125.399 7.21762C118.419 7.21762 113.35 11.2798 113.35 17.6269C113.35 24.0104 118.419 27.7824 125.399 27.7461C132.415 27.7461 137.485 23.9741 137.485 17.6269ZM127.089 20.2746C127.089 21.544 126.611 22.5233 125.399 22.5233C124.187 22.5233 123.709 21.544 123.709 20.2746V14.7979C123.709 13.4922 124.187 12.513 125.399 12.513C126.611 12.5492 127.089 13.5285 127.089 14.7979V20.2746Z" fill="#ED1C24"/>
<path d="M164.138 27.3471L156.35 16.5751L163.624 7.61658H153.301L148.746 14.3264V0.689119H139.452V27.3471H148.746V19.9845L153.705 27.3471H164.138Z" fill="#ED1C24"/>
</svg>
